<?xml version="1.0" encoding="UTF-8"?>
<!DOCTYPE svg PUBLIC "-//W3C//DTD SVG 1.1//EN" "http://www.w3.org/Graphics/SVG/1.1/DTD/svg11.dtd">
<!-- Creator: CorelDRAW -->
<svg xmlns="http://www.w3.org/2000/svg" xml:space="preserve" width="188.5mm" height="206mm" version="1.1" style="shape-rendering:geometricPrecision; text-rendering:geometricPrecision; image-rendering:optimizeQuality; fill-rule:evenodd; clip-rule:evenodd"
viewBox="0 0 18850 20600"
 xmlns:xlink="http://www.w3.org/1999/xlink"
 xmlns:xodm="http://www.corel.com/coreldraw/odm/2003">
 <defs>
  <style type="text/css">
   <![CDATA[
    .fil0 {fill:#14243A;fill-rule:nonzero;fill-opacity:0.129412}
   ]]>
  </style>
 </defs>
 <g id="Слой_x0020_1">
  <metadata id="CorelCorpID_0Corel-Layer"/>
  <path class="fil0" d="M19374.72 3898.94c-41.8,-1.91 -87.31,11.01 -106.09,28.13 -18.79,17.13 -246.6,18.74 -509.94,6.74l-478.57 -21.82 -1078.98 984.9 -1082.11 987.74 -17.33 445.83 -17.33 445.82 -900.7 822.16c-878.84,802.19 -900.72,822.17 -957.82,759.62 -45.66,-50.03 -78.98,-42.54 -166.55,37.39 -68.82,62.78 -101.74,127.24 -85.41,163.93 18.89,45.83 -22.86,106.87 -129.2,203.95l-153.24 139.88 -185.56 -203.28 -185.55 -203.3 153.25 -139.89c106.31,-97.05 170.89,-133.09 214.81,-110.09 96.68,49.37 282.29,-142.98 232.81,-241.17 -38.6,-73.69 -13.31,-102.5 677.86,-733.43 587.96,-536.68 717,-671.67 716.89,-734.64 -4.07,-42.15 20,-109.99 48.69,-147.64 31.82,-40.5 49.9,-108.63 40.13,-157.03 -11.82,-69.48 -38.07,-85.67 -113.24,-80.08 -129.59,15.05 -172.69,106.01 -89.9,196.71 34.26,37.52 57.75,113.54 52.17,170.24 -7.2,92.57 -101.57,190.18 -705.19,741.17 -669.27,610.93 -700.28,633.47 -770.15,588.33 -93.27,-58.21 -301.71,109.14 -261.36,209.89 18.89,45.83 -22.83,106.87 -129.17,203.92l-153.24 139.88 -185.58 -203.28 -185.55 -203.27 153.24 -139.89c106.34,-97.08 170.92,-133.09 214.84,-110.12 35.06,19.61 99.12,-4.47 167.91,-67.26 65.69,-59.95 95.46,-121.55 82.28,-161.1 -21.48,-54.93 157.35,-229.63 1358.3,-1325.85l1388.58 -1267.53 355.81 19.21 355.82 19.22 525.4 -479.6c362.8,-331.15 555.63,-484.22 622.25,-499.17 78.58,-14.4 100.46,-34.38 101.44,-121.26 4.37,-95.72 -1.35,-101.97 -97.07,-106.34 -77.76,-3.54 -99.38,10.46 -104.96,67.15 -2.2,47.86 -162.77,217.38 -538.09,559.96l-534.8 488.16 -355.81 -19.21 -355.79 -19.22 -1416.76 1293.22c-1116.51,1019.15 -1422.19,1280.98 -1441.61,1247.11 -22.57,-31.01 -80.64,-6.66 -170.79,64.17 -87.02,67.97 -131.63,125.86 -114.48,144.64 17.12,18.76 -37.41,97.21 -124.99,177.14l-156.37 142.74 -185.55 -203.3 -185.58 -203.28 140.76 -128.46c96.94,-88.5 161.26,-118.53 202.3,-98.69 41.06,19.85 105.38,-10.18 183.57,-81.54 87.57,-79.93 110.57,-123.85 79.16,-158.25 -34.26,-37.54 7.2,-92.6 216.75,-283.87l259.58 -236.93 325.89 17.83 325.91 17.86 753.72 -688 750.59 -685.14 39.53 -867.43 39.56 -867.43 478.5 -436.78c322.13,-294.04 508.69,-441.4 572.19,-453.49 78.58,-14.4 100.48,-34.39 101.44,-121.26 4.36,-95.72 -1.35,-101.98 -97.08,-106.34 -77.76,-3.54 -99.38,10.46 -104.96,67.15 -2.17,47.86 -159.65,214.53 -522.42,545.68l-516.04 471.04 -39.56 867.43 -39.53 867.42 -719.32 656.61 -716.2 653.73 -344.12 -12.68 -338.13 -12.43 -253.32 231.24c-184.52,168.44 -271.01,224.45 -312.05,204.58 -61.59,-29.77 -310.96,180.66 -268.15,227.57 17.12,18.76 -40.27,94.08 -127.82,174.01l-156.37 142.75 -185.58 -203.28 -185.55 -203.31 140.73 -128.45c96.94,-88.51 161.26,-118.54 202.33,-98.69 41.06,19.87 105.35,-10.19 183.57,-81.55 81.3,-74.21 117.07,-135.54 97.89,-175.36 -18.6,-51.81 38.5,-121.16 279.32,-340.97l303.37 -276.91 295.99 16.48 295.97 16.51 644.26 -588.1 641.13 -585.22 25.8 -631.27 28.63 -628.14 599.92 -536.15c546.49,-481.64 597.08,-539.28 563.64,-594.75 -47.44,-77.1 -175.26,-34.97 -179.6,60.75 -1.93,41.87 -181.27,228.52 -537.82,553.97l-531.65 485.31 -28.66 628.14 -28.63 628.13 -609.86 556.68 -612.99 559.55 -295.96 -16.51 -295.99 -16.48 -319.01 291.2c-253.34,231.22 -330.7,284.64 -380.6,261.38 -84.96,-42.83 -316.39,168.44 -278.61,260.06 18.89,45.83 -13.2,92.31 -115.86,174.57l-143.03 113.38 -200.66 -200.98 -203.52 -204.1 143.88 -131.34c96.94,-88.48 161.26,-118.53 202.3,-98.66 41.06,19.84 105.38,-10.19 183.57,-81.57 81.31,-74.22 117.08,-135.52 97.92,-175.37 -21.48,-54.93 82.29,-161.1 670.24,-697.8l694.3 -633.76 206.24 12.4c194.31,11.85 215.63,3.83 425.18,-187.44 159.5,-145.59 242.87,-198.74 323.75,-198.05 80.91,0.69 114.75,-18.75 129.46,-78.02 32.23,-115.43 -1.48,-164.93 -115.15,-170.11 -89.72,-4.09 -99.11,4.48 -127.95,111.07 -18.1,68.11 -101.04,178.23 -219.89,286.71 -178.25,162.72 -205.59,170.47 -439.45,171.8l-248.66 -2.35 -709.95 648.04c-547.29,499.57 -712.23,632.95 -734.8,601.94 -44.59,-73.98 -293.98,136.47 -274.14,227.3 12.65,51.52 -26.25,115.68 -120.07,201.32l-140.75 128.48 -185.56 -203.3 -185.55 -203.28 156.37 -142.74c87.58,-79.93 170.66,-127.08 184.92,-111.45 17.14,18.76 84.85,-20.13 153.64,-82.92 68.82,-62.81 113.69,-126.7 96.57,-145.46 -17.14,-18.78 234.16,-271.09 700.14,-696.45l728.72 -665.16 236.14 13.76 236.17 13.76 344.03 -314.02c262.71,-239.8 364.81,-310.08 436.88,-312.79 125.89,-0.26 182.06,-114.59 99.28,-205.29 -82.79,-90.7 -201.75,-45.16 -213.47,80.19 -9.26,71.51 -85.41,163.96 -335.6,392.34l-328.4 299.75 -266.06 -15.12 -266.07 -15.13 -709.95 648.03c-681.78,622.35 -712.79,644.91 -782.67,599.76 -58.18,-38.62 -100.88,-22.58 -197.83,65.92 -81.3,74.22 -117.08,135.53 -101.04,178.23 16.03,42.71 -19.74,104.01 -116.68,192.51l-140.74 128.46 -185.55 -203.28 -185.58 -203.29 153.25 -139.89c106.34,-97.06 170.92,-133.08 214.84,-110.1 35.09,19.59 102.24,-7.33 171.06,-70.13 68.79,-62.8 101.7,-127.25 85.4,-163.96 -18.62,-51.8 35.35,-118.28 260.54,-323.82l284.61 -259.79 27.78 -478.31 28.07 -484.29 576.95 -492.24 574.1 -495.36 356.07 13.23 359.23 10.38 453.47 -413.94c312.76,-285.48 477.41,-412.85 525.27,-410.67 56.71,5.58 72.87,-20.66 76.42,-98.43 4.36,-95.71 -1.33,-101.97 -91.07,-106.06 -71.78,-3.27 -102.53,13.31 -126.87,87.13 -20.4,53.03 -212.54,257.08 -465.85,488.32l-428.47 391.1 -377.16 -11.2 -376.87 -17.18 -572.06 516.44 -572.06 516.45 -30.66 475.18 -24.66 475.45 -268.98 245.51c-240.82,219.82 -274.66,239.26 -341.68,197.23 -55.35,-35.49 -100.88,-22.58 -185.34,54.5 -71.91,65.66 -107.68,126.97 -88.53,166.82 18.89,45.82 -22.86,106.86 -129.2,203.92l-153.24 139.88 -185.55 -203.28 -185.56 -203.29 153.25 -139.88c106.34,-97.06 170.92,-133.08 214.82,-110.1 96.67,49.36 285.4,-145.85 239.07,-246.88 -35.48,-76.55 -10.18,-105.37 405.77,-485.05l447.22 -408.24 17.33 -445.81 17.33 -445.82 1066.46 -973.48c753.72,-688 1084.42,-972.65 1132.28,-970.47 95.7,4.36 145.9,-110.25 77.39,-185.31 -62.81,-68.8 -159.88,-43.26 -185.34,54.5 -10.74,38.47 -499.71,507.75 -1087.67,1044.44l-1072.73 979.19 -26.72 454.38 -29.82 457.24 -425.34 388.25c-353.41,322.59 -440.16,384.57 -490.07,361.32 -35.05,-19.59 -102.23,7.33 -171.02,70.13 -68.82,62.81 -101.73,127.25 -85.41,163.96 18.89,45.82 -22.86,106.86 -129.2,203.92l-153.24 139.89 -125.63 -137.61c-228.36,-250.2 -632.59,-259.63 -892.17,-22.69l-118.83 108.48 -137.02 -150.12c-74.25,-81.31 -135.95,-174.04 -134.31,-209.94 3.81,-83.75 -169.78,-286.49 -227.83,-262.16 -36.72,16.31 -157.45,-97.1 -442.91,-409.84l-393.97 -431.6 26.17 -442.41 29 -439.29 -919.22 -1007.05c-676.59,-741.21 -915.59,-1021.86 -913.13,-1075.7 2.73,-59.83 -20.63,-72.88 -98.42,-76.43 -95.7,-4.36 -101.97,1.35 -106.34,97.06 -3.54,77.77 7.33,102.25 67.15,104.97 53.85,2.46 305.89,259.73 973.91,991.56l902.1 988.28 -23.29 445.55 -23.31 445.54 405.37 444.1c379.68,415.95 402.25,446.96 357.11,516.84 -35.51,55.33 -22.6,100.88 51.65,182.19 62.78,68.81 124.38,98.59 163.93,85.41 45.83,-18.9 104.01,19.72 206.8,132.31l142.74 156.38 -203.3 185.56 -203.28 185.56 -142.74 -156.38c-102.77,-112.59 -135.95,-174.05 -112.96,-217.96 16.73,-38.2 -7.32,-102.24 -70.14,-171.05 -74.21,-81.31 -118.4,-98.31 -176.74,-68 -73.68,38.6 -102.5,13.31 -510.75,-433.92l-433.92 -475.37 -269.47 -6.29 -269.19 -12.27 -721.73 -803.22c-653.21,-728.16 -724.83,-800.36 -780.31,-766.92 -73.98,44.58 -40.14,157.02 59.66,203.54 41.07,19.85 364.47,355.31 724.43,743.39l654.29 704.23 287.15 13.09 286.89 19.07 416.8 456.61c342.55,375.3 410.26,468.31 387,518.2 -42.57,78.99 151.56,291.66 234.11,256.46 45.8,-18.9 106.84,22.85 203.91,129.19l139.89 153.24 -203.28 185.55 -203.31 185.58 -142.71 -156.39c-102.8,-112.58 -135.95,-174.04 -112.98,-217.95 16.75,-38.21 -7.33,-102.25 -67.26,-167.92 -62.81,-68.81 -124.41,-98.59 -161.1,-82.28 -54.93,21.47 -181.11,-104.17 -883.37,-873.53l-819.33 -897.59 -445.8 -17.32 -445.82 -17.33 -976.34 -1069.59 -973.48 -1066.48 30.11 -463.21c14.57,-254.11 49.16,-486.33 80.43,-514.88 34.4,-31.41 26.91,-64.72 -22.15,-105.92 -92.44,-76.14 -215.37,-9.81 -169.01,91.21 16.03,42.7 22.81,288.79 13.92,549.16l-18.68 475.72 984.88 1078.98 981.79 1081.83 463.21 30.11 457.22 29.84 807.91 885.07c782.21,856.93 804.78,887.94 759.62,957.81 -57.92,87.28 78.02,261.33 204.2,255.11 54.11,-3.55 132.56,50.98 221.04,147.93l139.88 153.24 -203.28 185.58 -203.28 185.55 -142.74 -156.37c-102.77,-112.58 -135.94,-174.04 -112.95,-217.96 16.72,-38.2 -7.33,-102.23 -70.14,-171.05 -74.22,-81.31 -118.4,-98.32 -176.74,-68 -73.69,38.6 -102.53,13.31 -727.71,-671.61 -610.93,-669.28 -654.03,-710.21 -761.98,-709.13 -62.94,0.12 -128.22,-14.84 -142.21,-36.46 -70.54,-96.13 -112.16,-104.02 -180.95,-41.22 -93.82,85.64 -88,154.85 17.22,213.6 46.78,26.11 104.01,19.73 147.8,-20.24 40.67,-37.11 116.68,-60.62 173.36,-55.04 92.6,7.21 190.2,101.59 726.91,689.55 522.42,572.34 616.08,687.49 586.85,737.12 -33.21,70.44 159.83,307.03 238.41,292.63 27.34,-7.75 111.23,59.01 191.17,146.58l139.88 153.25 -203.31 185.55 -203.27 185.58 -142.75 -156.39c-102.76,-112.59 -135.94,-174.05 -112.95,-217.94 42.84,-84.99 -174.12,-322.66 -239.79,-262.73 -40.67,37.12 -206.8,-132.32 -1325.85,-1358.28l-1278.95 -1401.11 19.21 -355.81 19.24 -355.81 -488.19 -534.8c-296.88,-325.26 -487.07,-558.72 -485.43,-594.62 4.08,-89.73 -122.47,-140.46 -191.29,-77.66 -75.06,68.52 -35.51,187.22 60.22,191.58 41.86,1.91 225.66,178.14 539.7,522.16l473.86 519.16 -19.2 355.81 -19.21 355.81 1293.2 1416.75c1130.49,1238.47 1286.96,1422.46 1246.32,1459.56 -53.18,48.55 145.28,297.36 227.01,280.11 27.34,-7.75 111.21,59.03 191.14,146.61l139.88 153.25 -203.28 185.55 -203.27 185.55 -125.63 -137.61c-74.21,-81.31 -126.81,-176.64 -124.38,-230.48 2.2,-47.83 -41.57,-139.75 -95.83,-199.18 -82.79,-90.7 -115.28,-101.17 -162.19,-58.34 -53.16,48.53 -82.26,29.21 -278.69,-198.54l-219.55 -246.8 27.25 -334.46 21.25 -334.74 -685.14 -750.59 -682.31 -747.47 -867.41 -39.55 -867.43 -39.54 -456.78 -500.39c-279.77,-306.5 -458.52,-527.46 -456.88,-563.35 4.1,-89.73 -122.48,-140.46 -191.3,-77.66 -75.06,68.51 -35.5,187.21 60.22,191.58 41.86,1.91 219.95,171.88 525.41,506.52l459.64 503.53 881.69 55.18 878.84 52.05 650.62 719.04 653.46 722.18 -10.37 359.22 -7.51 362.32 216.96 237.7c128.45,140.73 207.3,252.23 188.54,269.35 -50.03,45.69 162.29,253.18 261.14,254.68 53.84,2.47 143.99,63.53 218.2,144.84l128.46 140.73 -218.1 181.9 -218.09 181.88 -128.75 -134.76c-71.65,-72.2 -124.25,-167.5 -122.34,-209.39 5.18,-113.66 -189.5,-314.38 -248.92,-260.11 -37.52,34.24 -98.3,-13.49 -326.66,-263.68l-279.77 -306.5 16.49 -295.99 16.48 -295.99 -602.35 -659.89 -599.52 -656.77 -658.05 -29.99 -661.16 -27.15 -429.98 -496.18c-233.28,-274.39 -451.72,-545.12 -482.04,-603.45 -52.6,-95.32 -64.3,-101.85 -129.97,-41.9l-75.06 68.52 543.22 576.27 546.07 579.4 658.05 30 654.92 32.85 573.83 628.63 570.94 625.49 -16.48 295.99 -16.48 295.99 279.74 306.49c222.67,243.95 276.12,321.31 250,368.09 -39.71,82.1 165.82,307.28 251.23,275.19 45.8,-18.89 104,19.74 206.77,132.32l142.74 156.39 -203.28 185.56 -203.3 185.55 -139.89 -153.25c-79.93,-87.55 -135.65,-180.02 -128.59,-203.67 24.64,-79.8 -205.13,-300.09 -258.28,-251.57 -40.67,37.12 -138.27,-57.26 -697.82,-670.24l-650.87 -713.08 12.38 -206.24c11.86,-194.29 3.84,-215.64 -181.71,-418.92 -108.48,-118.84 -204.18,-255.09 -210.85,-306.35 -21.59,-117.88 -133.09,-170.92 -211.27,-99.55 -84.43,77.08 -10.64,233.31 103.85,220.54 63.23,-6.11 132.85,45.02 261.3,185.76 165.58,181.4 176.45,205.87 174.65,442.57l-2.35 248.68 648.04 709.93c553.83,606.74 638.92,712.52 598.28,749.64 -34.42,31.41 -15.53,77.23 64.42,164.79 71.36,78.18 132.67,113.95 175.37,97.92 45.83,-18.89 104.01,19.74 206.77,132.32l142.74 156.36 -203.27 185.58 -203.28 185.56 -139.89 -153.25c-88.5,-96.97 -135.68,-180.02 -127.24,-233.6 16.88,-107.13 -134.43,-272.89 -216.96,-237.7 -54.92,21.48 -163.96,-85.38 -712.07,-685.88l-648.04 -709.93 13.76 -236.17 13.75 -236.17 -319.72 -350.25c-185.55,-203.3 -315.78,-371.09 -308.45,-400.73 18.1,-68.12 -110.91,-196.89 -171.82,-175.69 -73.42,32.62 -118.72,171.44 -73.05,221.47 22.83,25.03 70.17,39.17 109.17,37.95 54.13,-3.53 151.73,90.84 382.16,362.11l313.19 361.98 -10.9 239.28 -4.93 239.56 645.19 706.81c619.47,678.68 642.04,709.66 596.9,779.56 -35.51,55.33 -22.59,100.86 51.65,182.2 62.78,68.79 124.38,98.58 163.93,85.4 45.83,-18.89 104.01,19.72 206.8,132.32l142.74 156.37 -203.3 185.55 -203.28 185.56 -142.74 -156.37c-102.77,-112.58 -135.95,-174.05 -112.95,-217.97 42.83,-84.95 -137.3,-276.01 -237.23,-253.6 -66.62,14.95 -124.54,-29.63 -320.97,-257.41l-239.26 -274.67 -489.98 -34.31 -495.99 -34.61 -493.87 -541.05 -496.73 -544.19 20.56 -385.71 20.58 -385.74 -416.79 -456.6c-228.37,-250.2 -418.55,-483.67 -425.77,-522.96 -16.43,-99.66 -110.78,-133.94 -179.57,-71.13 -75.07,68.51 -35.51,187.21 60.19,191.58 41.88,1.9 205.69,156.24 468.34,443.97l402.51 440.97 -20.59 385.73 -20.55 385.71 528.1 578.59 528.14 578.59 478.31 27.78 478.32 27.81 233.81 262.44c185.02,215.24 221.03,279.83 200.1,344.81 -31.43,97.5 105.07,259.58 219.26,252.78 54.11,-3.52 132.56,51.01 221.06,147.95l139.89 153.25 -203.28 185.58 -203.31 185.55 -142.71 -156.37c-102.79,-112.6 -135.95,-174.07 -112.98,-217.96 16.75,-38.21 -7.33,-102.26 -70.12,-171.05 -74.24,-81.31 -118.42,-98.32 -176.74,-68 -73.71,38.6 -102.52,13.31 -496.49,-418.28l-419.65 -459.74 -445.8 -17.33 -445.82 -17.33 -950.65 -1041.45c-710.83,-778.75 -955.52,-1065.64 -969.94,-1144.25 -17.25,-81.7 -34.66,-94.48 -124.93,-86.62 -87.42,11 -99.94,22.43 -103.48,100.2 -3.26,71.78 10.74,93.39 67.71,93 53.84,2.46 325.86,281.62 1059.52,1085.4l987.77 1082.09 445.82 17.33 445.8 17.33 405.39 444.1c334.01,365.92 398.84,455.8 375.58,505.67 -42.55,79.01 108.74,244.74 216.98,237.71 54.11,-3.55 132.53,50.98 221.04,147.95l139.88 153.25 -109.46 99.9c-275.22,251.23 -293.6,589.1 -45.24,861.17l134.17 147 -168.88 154.15c-121.98,111.34 -183.44,144.51 -230.48,124.38 -35.06,-19.58 -102.24,7.33 -171.06,70.14 -68.79,62.81 -101.7,127.24 -85.38,163.96 18.6,51.81 -54.13,135.42 -416.93,466.57l-440.98 402.51 -448.65 -20.45 -448.68 -20.45 -1057.09 964.9c-763.11,696.57 -1084.42,972.67 -1150.75,981.64 -72.63,14.68 -97.64,37.51 -106.63,103.05 -30.88,217.38 65.25,146.84 1226.37,-930.22l1139.22 -1057.09 451.51 23.57 445.56 23.31 447.22 -408.22c375.29,-342.59 452.94,-401.98 490.06,-361.32 31.38,34.4 80.33,12.65 183.54,-81.57 78.19,-71.36 129.33,-140.97 112.19,-159.73 -14.26,-15.63 49.66,-102.66 143.48,-188.3l172.01 -157.01 185.55 203.28 185.55 203.31 -168.88 154.15c-121.95,111.33 -183.41,144.51 -230.46,124.38 -79,-42.58 -291.65,151.55 -256.46,234.07 18.63,51.81 -38.49,121.16 -263.65,326.68l-287.74 262.66 -445.56 -23.31 -445.53 -23.31 -581.71 530.99 -581.71 530.99 -10.38 359.2 -16.37 358.93 -537.37 479.06c-490.2,430.26 -537.4,479.05 -501.1,537.66 47.44,77.1 175.26,34.98 204.1,-71.63 11.01,-44.45 212.54,-257.06 453.34,-476.88l428.76 -397.09 25.74 -367.5 22.89 -370.63 559.8 -510.99 559.84 -511.02 445.53 23.31 445.56 23.31 293.97 -268.34c228.31,-208.41 302.56,-258.97 349.31,-232.86 82.12,39.72 297.92,-157.27 293.98,-268.36 -3.26,-60.09 41.61,-123.99 147.42,-209.08l152.43 -121.95 185.55 203.28 185.58 203.31 -135.31 140.71c-94.38,97.6 -162.08,136.47 -221.64,127.76 -47.57,-8.17 -130.39,33.02 -202.33,98.69 -100.06,91.34 -113.4,120.71 -64.87,173.89 54.24,59.42 35.21,82.52 -671.6,727.71l-728.71 665.16 -7.78 236.43 -7.78 236.43 -337.77 308.32c-212.67,194.13 -377.05,315.52 -434.57,327.87 -78.58,14.42 -100.49,34.4 -100.89,109.3 -2.46,53.85 25,109.06 63.21,125.79 76.12,39.44 187.62,-39.4 173.22,-118.01 -4.63,-30.16 146.58,-191.13 359.25,-385.26l365.92 -334.01 9.16 -266.33 9.13 -266.35 694.29 -633.76c587.98,-536.71 703.16,-630.37 755.89,-603.99 79,42.57 282.28,-142.98 259.87,-242.92 -12.65,-51.54 25.69,-103.74 147.14,-203.12l161.79 -130.49 189.25 188.46 186.38 185.34 -175.16 159.87c-93.82,85.64 -183.41,144.51 -200.55,125.73 -14.26,-15.64 -91.1,25.82 -169.28,97.2 -103.22,94.2 -129.33,140.97 -97.92,175.37 37.12,40.67 -57.26,138.27 -670.25,697.81l-713.05 650.88 -6.43 206.53c-5.87,194.55 -15.79,215.08 -219.07,400.66 -118.85,108.48 -255.09,204.18 -306.36,210.82 -117.88,21.62 -170.92,133.08 -96.68,214.39 74.21,81.33 190.05,38.66 222.3,-76.78 11.3,-50.43 118.98,-177.4 237.83,-285.88 203.28,-185.58 213.21,-206.09 219.08,-400.66l6.43 -206.54 709.93 -648.01c600.47,-548.11 718.77,-644.63 771.52,-618.26 78.98,42.58 282.29,-143 259.85,-242.94 -12.62,-51.51 25.72,-103.71 147.14,-203.09l161.81 -130.52 189.23 188.49 186.38 185.34 -168.89 154.15c-112.58,102.76 -198.78,152.79 -252.36,144.35 -44.71,-5.02 -124.14,27.31 -174.17,73 -50.03,45.67 -79.83,107.26 -63.5,143.96 18.6,51.81 -38.5,121.16 -288.69,349.52l-309.64 282.62 -24.37 337.59 -24.39 337.61 -606.72 553.82 -609.86 556.68 -651.8 -35.71 -648.95 -32.57 -533.69 464.23c-290.33,253.53 -561.58,483.95 -604.55,505.97 -55.48,33.44 -59.98,66.19 -17.7,125.09 58.87,89.59 189,62.55 193.89,-45.14 1.91,-41.85 171.87,-219.94 506.52,-525.41l500.41 -456.77 658.04 30 658.05 30 622.38 -568.11 622.35 -568.09 23.84 -325.62 20.98 -328.74 300.51 -280.06c268.98,-245.51 309.09,-270.65 370.13,-228.9 87.26,57.92 308.5,-126.81 270.98,-224.44 -15.76,-48.69 22.86,-106.87 144.84,-218.2l168.88 -154.15 185.55 203.28 185.58 203.28 -168.88 154.17c-121.97,111.34 -183.44,144.49 -230.48,124.36 -35.08,-19.58 -102.24,7.32 -171.05,70.14 -68.79,62.81 -101.71,127.23 -85.41,163.96 18.63,51.8 -32.23,115.41 -232.38,298.13l-256.46 234.08 -11.88 326.18 -11.86 326.17 -734.96 670.88 -734.96 670.85 -870.56 -36.67 -873.68 -33.84 -484.77 442.49c-268.95,245.51 -540.22,475.93 -605.07,517.95 -107.85,64 -111.23,72.84 -41.91,129.96l75.03 63.37 572.88 -534.38 572.88 -534.4 837.51 38.18 840.37 41.3 766.23 -699.4 769.38 -702.29 11.86 -326.17 11.88 -326.16 240.82 -219.84c212.67,-194.12 246.51,-213.54 313.53,-171.53 55.35,35.48 100.89,22.6 185.34,-54.5 71.92,-65.65 107.69,-126.98 88.53,-166.8 -15.77,-48.68 22.86,-106.86 144.83,-218.2l168.89 -154.17 185.55 203.31 185.55 203.28 -168.88 154.14c-121.97,111.34 -183.44,144.52 -230.48,124.38 -37.91,-22.7 -102.23,7.33 -174.18,73 -84.42,77.07 -101.44,121.26 -71.12,179.57 41.47,76.84 13.31,102.53 -1369.03,1364.35l-1407.37 1284.64 -25.74 367.5 -22.63 364.65 -512.89 468.18c-340.89,311.18 -536.84,467.1 -578.72,465.19 -101.68,-4.63 -143.04,113.37 -71.68,191.56 54.24,59.42 72.47,54.27 139.78,-41.59 44.61,-57.92 314.38,-321.37 598.99,-581.16l519.17 -473.9 10.1 -353.21 13.23 -356.08 1401.1 -1278.94c1219.73,-1113.37 1413.09,-1278.39 1465.85,-1252.01 35.05,19.58 99.11,-4.47 167.9,-67.29 65.67,-59.95 95.46,-121.55 82.29,-161.1 -18.89,-45.83 22.86,-106.87 147.95,-221.06l175.13 -159.86 170.47 205.61 167.61 202.46 -144.67 149.25c-110.01,111.89 -165.5,145.33 -215.66,128.06 -97.47,-31.44 -300.75,154.14 -265.56,236.67 21.48,54.92 -85.41,163.96 -689.01,714.93 -741.2,676.59 -762.82,690.58 -910.61,578.93 -34.79,-25.56 -106.05,-40.8 -154.44,-31.01 -69.48,11.83 -85.67,38.05 -80.09,113.24 15.06,129.57 106.02,172.7 196.72,89.91 37.52,-34.26 119.51,-57.5 182.19,-51.65 107.42,10.9 154.04,-25.95 829.58,-642.59 612.98,-559.52 718.79,-644.63 755.88,-603.97 48.56,53.16 297.37,-145.31 280.12,-227.01 -4.9,-24.21 68.39,-119.78 162.24,-205.42l172.01 -157 170.47 205.58 167.61 202.46 -157.19 160.7c-119.4,120.44 -171.74,151.03 -215.66,128.04 -102.63,-49.64 -291.39,145.57 -241.91,243.76 38.6,73.68 13.31,102.5 -852.99,893.28l-891.33 813.62 -481.72 -18.97 -478.58 -21.83 -1050.82 959.22 -1047.72 956.34 -21.54 472.6c-11.99,263.23 -47.39,513.4 -76.63,563.01 -64.18,93 -16.74,170.1 103.46,163.59 93.13,-4.76 123.74,-84.3 58.07,-156.24 -22.57,-30.98 -29.6,-271.09 -5.63,-533.77l40.03 -483.74 1022.69 -933.53 1022.67 -933.5 484.85 16.11 484.82 16.12 897.6 -819.34c578.59,-528.13 909,-806.82 926.12,-788.03 37.12,40.64 265.43,-167.75 268.71,-239.53 4.47,-32.78 71.78,-128.61 153.38,-208.84l147.82 -152.1 182.7 200.15 185.55 203.28 -144.67 149.28c-110.02,111.87 -165.5,145.31 -215.66,128.03 -100.33,-34.53 -338.01,182.43 -278.06,248.1 37.1,40.67 -29.13,112.58 -416.93,466.57l-456.61 416.8 -308.48 -5.08 -308.51 -5.06 -700.56 639.47c-387.8,353.99 -756.02,672.89 -817.75,712.05 -101.57,58.31 -108.37,75.99 -54.13,135.41 71.36,78.19 192.64,47.74 197.27,-53.94 1.91,-41.89 225.06,-268.5 709.83,-710.99l706.8 -645.19 295.99 16.48 295.99 16.51 478.5 -436.8c403.44,-368.24 484.22,-430.5 521.31,-389.86 59.96,65.7 297.66,-151.29 272.36,-254.34 -12.62,-51.54 25.72,-103.75 147.14,-203.1l161.82 -130.52 185.55 203.31 182.72 200.16 -164.94 133.35c-87.29,73.95 -188.86,132.26 -221.91,133.74 -29.89,-1.35 -106.99,46.09 -172.69,106.05 -96.94,88.48 -107.42,120.97 -61.73,171.03 54.24,59.42 35.19,82.52 -405.79,485.06l-462.86 422.48 -17.33 445.83 -17.33 445.82 -972.64 887.83c-681.77,622.33 -990.6,887.02 -1038.43,884.82 -95.73,-4.36 -145.92,110.26 -83.11,179.05 48.53,53.18 113.93,-0.8 1112.42,-929.4l1064.15 -988.59 23.31 -445.54 20.45 -448.68 447.23 -408.22c275.22,-251.22 455.53,-392.85 472.65,-374.1 48.55,53.16 278.21,-185.15 258.1,-269.98 -12.65,-51.54 25.72,-103.74 147.13,-203.12l161.82 -130.49 178.36 163.99c149.54,138.69 214.26,165.63 372.64,175.84 155.55,7.09 219.58,-16.96 374.86,-135.76l186.56 -147.37 142.74 156.37c97.08,106.34 130.23,167.8 107.24,211.72 -33.18,70.4 171,325.52 224.18,276.96 18.76,-17.11 191.13,146.61 450.93,431.2l422.48 462.88 -20.45 448.66 -17.3 445.82 1007.45 1109.98c870.43,959.86 1019.44,1110.54 1097.2,1114.08 83.74,3.81 90.01,-1.9 65.67,-59.95 -13.17,-39.58 -65.11,-83.9 -118.13,-104.3 -59.01,-20.69 -414.08,-384.55 -1027.86,-1056.96l-939.22 -1028.94 23.29 -445.55 23.31 -445.54 -425.35 -466.01c-393.96,-431.59 -422.25,-468.84 -380.23,-535.86 54.82,-84.43 -96.07,-325.09 -184.57,-290.17 -33.61,13.47 -109.2,-37.94 -209.1,-147.4l-154.15 -168.88 203.28 -185.58 203.28 -185.55 142.74 156.37c102.77,112.6 135.94,174.07 112.95,217.96 -42.83,84.99 174.12,322.66 239.79,262.71 37.55,-34.24 98.32,13.49 326.69,263.68l279.77 306.49 -23.31 445.54 -23.31 445.55 530.99 581.72 530.99 581.68 356.08 13.26 356.1 13.23 416.8 456.62c239.79,262.7 415.68,480.53 414.04,516.41 -1.9,41.88 32.92,67.44 98.16,82.42 95.18,16.32 101.45,10.61 106.08,-91.07 6.93,-86.63 -9.93,-111.37 -89.99,-129.99 -62.15,-17.83 -228.81,-175.29 -502.87,-475.54l-408.22 -447.22 -356.1 -13.23 -356.08 -13.26 -516.7 -566.05 -519.57 -569.22 29 -439.29 26.17 -442.41 -282.63 -309.61c-231.22,-253.32 -273.23,-318.19 -235.69,-352.46 34.4,-31.38 15.5,-77.2 -67.28,-167.9 -62.82,-68.82 -126.71,-113.69 -145.47,-96.55 -15.64,14.26 -102.66,-49.63 -188.31,-143.48l-159.86 -175.13 205.61 -170.47 202.46 -167.61 146.42 141.55c106.18,103.77 136.76,156.1 113.77,200.02 -22.99,43.9 4.21,105.1 75.57,183.28 82.78,90.7 123.85,110.54 185.31,77.39 73.69,-38.6 102.5,-13.31 730.57,674.74l653.73 716.18 236.43 7.78 236.43 7.8 308.32 337.77c185.58,203.28 315.52,377.05 325.04,431.43 21.59,117.9 133.09,170.92 214.4,96.7 75.06,-68.53 44.6,-189.78 -57.08,-194.44 -41.88,-1.91 -185.71,-134.36 -388.4,-356.39l-325.44 -356.53 -277.76 -21.67 -277.76 -21.64 -648.04 -709.96c-553.83,-606.71 -638.92,-712.5 -598.28,-749.62 65.7,-59.95 -151.29,-297.63 -242.91,-259.84 -45.83,18.89 -95.17,-16.33 -188.84,-131.5l-127.66 -158.7 203.31 -185.55 203.28 -185.55 146.39 141.55c106.18,103.74 136.76,156.1 113.8,200 -45.99,87.84 170.97,325.51 236.67,265.56 40.64,-37.09 141.1,60.4 712.07,685.88l665.16 728.71 206.51 6.41c200.55,6.16 215.11,15.82 412.09,231.61 114.19,125.1 204.44,249.11 194.23,275.62 -17.81,62.12 79.24,168.46 142.74,156.37 87.71,-16.99 139.25,-161.5 85.01,-220.93 -28.55,-31.27 -75.3,-57.39 -102.63,-49.63 -24.21,4.89 -142.61,-93.43 -256.8,-218.52 -202.7,-222.07 -211.54,-225.45 -441.99,-232.97l-236.43 -7.78 -639.47 -700.56c-613.78,-672.41 -636.35,-703.4 -591.19,-773.27 38.6,-58.21 22.57,-100.89 -60.22,-191.59 -71.36,-78.18 -129.83,-110.83 -175.65,-91.94 -45.8,18.89 -95.17,-16.33 -188.84,-131.5l-127.63 -158.67 188.46 -189.23 185.34 -186.4 159.86 175.16c85.65,93.82 144.52,183.43 125.76,200.55 -15.64,14.26 20.11,84.85 82.89,153.64 62.81,68.82 129.83,110.84 145.47,96.55 18.79,-17.12 154.04,105.94 339.59,309.22l308.32 337.77 326.18 11.88 326.15 11.88 545.28 597.35 542.4 594.2 -30.01 658.04 -29.97 658.07 471.03 516.02c314.01,344.04 472.79,543.11 470.88,584.97 -4.36,95.72 110.26,145.92 185.32,77.39 68.79,-62.81 43.26,-159.89 -54.51,-185.32 -38.47,-10.74 -273.65,-243.28 -522.02,-515.38l-456.75 -500.38 27.15 -661.16 24.26 -664.32 -565.23 -619.23 -565.26 -619.26 -337.58 -24.37 -337.58 -24.39 -285.49 -312.74c-268.34,-293.98 -285.19,-318.74 -225.76,-372.98 53.15,-48.53 42.54,-78.98 -48.79,-179.07 -71.39,-78.19 -132.69,-113.93 -175.4,-97.9 -45.82,18.89 -104,-19.74 -206.77,-132.32l-142.74 -156.36 203.28 -185.58 203.3 -185.56 154.15 168.89c111.34,121.97 144.52,183.43 124.38,230.48 -19.58,35.05 4.47,99.11 55.86,155.39 51.38,56.3 112.97,86.09 149.67,69.77 51.81,-18.6 118.3,35.37 312.42,248.04l248.36 272.1 326.18 11.85 326.15 11.88 673.74 738.09 670.88 734.96 -36.44 864.57 -39.52 867.41 521.86 584.31c470.24,533.98 521.89,584.28 580.5,548.01 80.22,-50.3 31.82,-172.41 -80.46,-207.49 -59.27,-14.71 -243.08,-190.92 -511.42,-484.9l-422.51 -462.89 39.53 -867.41 39.55 -867.44 -699.42 -766.23 -702.29 -769.36 -326.15 -11.88 -326.18 -11.85 -236.93 -259.58c-216.99,-237.7 -230.72,-265.3 -174.41,-316.68 53.18,-48.53 42.57,-79.01 -48.79,-179.07 -71.36,-78.19 -132.69,-113.96 -175.37,-97.92 -45.83,18.89 -104.01,-19.72 -206.77,-132.32l-142.74 -156.37 203.28 -185.55 203.27 -185.58 154.18 168.88c111.33,121.97 144.49,183.44 124.35,230.48 -49.34,96.68 128.72,266.65 224.05,214.05 76.81,-41.46 102.53,-13.34 1381.44,1387.79l1304.64 1429.25 329.3 9.03 329.03 15 550.42 615.55c495.9,562.13 553.56,612.72 609.04,579.28 80.22,-50.3 31.83,-172.4 -80.46,-207.49 -59.29,-14.68 -257.36,-206.56 -571.37,-550.57l-479.61 -525.43 -326.18 -11.86 -326.17 -11.88 -1293.21 -1416.74c-1130.48,-1238.48 -1286.96,-1422.48 -1246.29,-1459.57 34.39,-31.41 15.5,-77.23 -53.02,-152.29 -62.79,-68.8 -127.24,-101.71 -163.94,-85.41 -48.68,15.77 -106.86,-22.86 -218.2,-144.81l-154.17 -168.88 203.3 -185.58 203.28 -185.55 154.15 168.88c111.33,121.97 144.51,183.44 124.38,230.48 -19.58,35.06 7.33,102.23 70.14,171.03 68.5,75.06 112.42,98.05 146.82,66.64 40.66,-37.12 141.13,60.38 714.93,689.01 710.85,778.74 716.54,785.01 580.15,949.64 -53.71,60.48 -52.49,99.51 1.75,158.93 57.09,62.55 87.02,63.93 149.56,6.83 56.31,-51.41 64.19,-93 27.63,-145.63 -28.02,-43.23 -48.13,-128.08 -42.26,-190.76 10.61,-101.42 -31.93,-154.31 -651.43,-832.96 -639.47,-700.57 -662.04,-731.58 -616.87,-801.45 61.04,-90.15 -92.03,-282.95 -192.78,-242.57 -48.66,15.77 -106.86,-22.86 -218.2,-144.83l-154.15 -168.89 203.28 -185.55 203.28 -185.58 157.03 172.03c119.88,131.34 147.64,180.55 110.09,214.82 -34.39,31.4 -15.5,77.23 67.29,167.93 82.79,90.7 126.71,113.66 161.1,82.28 40.64,-37.12 158.25,79.14 883.37,873.53l836.45 916.35 -23.31 445.54 -23.31 445.53 973.48 1066.48 970.63 1063.33 478.58 21.83c263.2,11.99 501.41,46.83 529.96,78.11 68.5,75.06 181.76,23.28 189.81,-87.26 0.69,-80.91 -7.89,-90.28 -89.03,-84.99 -54.14,3.52 -314.75,0.64 -581.37,-2.54l-491.1 -10.39 -944.93 -1035.19 -944.93 -1035.21 23.31 -445.53 23.31 -445.53 -839.31 -919.48c-716.55,-784.99 -830.21,-922.07 -803.81,-974.8 33.18,-70.44 -171,-325.52 -224.18,-277 -15.64,14.27 -102.63,-49.63 -188.28,-143.45l-159.86 -175.16 205.58 -170.47 202.49 -167.61 146.39 141.55c106.18,103.77 136.77,156.1 113.77,200.03 -42.83,84.95 159.6,313 248.1,278.07 48.95,-21.75 135.42,54.14 486.55,438.81l422.51 462.87 -16.49 295.99 -16.48 295.98 659.45 722.45c476.75,522.29 658.63,740.38 656.17,794.23 0.39,56.96 20.66,72.89 98.42,76.43 95.73,4.34 101.97,-1.35 106.34,-97.07 3.54,-77.76 -10.45,-99.38 -67.15,-104.96 -53.85,-2.46 -254.48,-203.44 -734.09,-728.85l-659.45 -722.44 22.2 -289.75 22.2 -289.72 -439.63 -481.65c-373.99,-409.68 -436.25,-490.45 -395.58,-527.58 34.39,-31.4 15.5,-77.23 -64.43,-164.78 -62.81,-68.82 -129.56,-116.81 -150.92,-108.79 -18.49,11.13 -105.75,-46.78 -188.83,-131.5l-152.11 -147.8 200.16 -182.72 203.28 -185.55 146.42 141.55c106.18,103.74 136.76,156.1 113.77,200 -22.99,43.92 4.21,105.12 75.56,183.3 82.79,90.7 123.86,110.54 185.32,77.39 73.69,-38.6 102.5,-13.31 502.18,424.53l425.37 465.98 415.9 15.98 421.88 16.22 964.38 1069.05c927.52,1022.43 967.5,1066.22 1023.77,1014.84 46.91,-42.84 39.45,-76.15 -32.46,-142.38 -48.82,-47.17 -488.71,-522.81 -971.18,-1051.37l-879.26 -963.27 -460.38 -26.96 -454.37 -26.72 -419.65 -459.74c-259.77,-284.59 -407.14,-471.15 -388.38,-488.29 43.78,-39.95 -185.13,-278.21 -240.35,-250.75 -30.46,10.61 -106.05,-40.8 -194.82,-131.76l-139.88 -153.25 157.74 -172.64c85.25,-95.04 172.43,-231.93 190.8,-306.04 33.6,-145.34 -52.71,-422.01 -178.31,-559.62 -117.05,-128.25 25.19,-355.55 219.77,-349.68 98.55,7.49 310.4,-168.69 298.87,-244.15 -4.63,-30.17 168.49,-211.11 418.68,-439.5l431.58 -393.97 445.56 23.31 445.53 23.31 988.28 -902.09c694.32,-633.79 1006.29,-901.31 1054.18,-899.14 95.51,4.37 145.78,-110.22 77.25,-185.29 -59.79,-65.69 -184.15,-38.36 -169.33,34.24 4.5,30.19 -384.31,408.1 -981.66,953.37l-994.54 907.82 -445.53 -23.31 -445.56 -23.31 -462.86 422.51c-440.98,402.51 -465.72,419.36 -519.96,359.97 -48.53,-53.19 -78.98,-42.58 -179.07,48.76 -78.19,71.38 -113.96,132.69 -97.92,175.39 16.03,42.7 -19.71,104.01 -116.68,192.51l-140.74 128.46 -185.55 -203.28 -185.55 -203.28 156.37 -142.74c87.58,-79.94 170.63,-127.11 184.92,-111.47 45.66,50.03 275.06,-182.3 248.15,-249.45 -18.6,-51.81 63.23,-138.01 444.26,-474.32l471.43 -413.12 22.73 -301.71 23.02 -307.68 793.3 -701.17c806.08,-718.58 885.35,-813.89 672.02,-802.64 -66.07,2.99 -91.1,25.82 -112.32,96.81 -17.81,62.12 -240.96,288.74 -731.97,736.94l-709.93 648.05 -23.02 307.65 -23.31 313.67 -455.5 392.88c-396.38,344.59 -461.52,392.59 -513.72,354.25 -81.31,-57.68 -309.32,144.75 -274.66,239.23 16.03,42.71 -19.74,104.01 -116.68,192.52l-140.74 128.45 -185.58 -203.28 -185.55 -203.28 153.25 -139.88c106.34,-97.08 170.92,-133.09 214.84,-110.1 35.06,19.58 99.11,-4.47 167.91,-67.28 65.69,-59.95 95.46,-121.55 82.28,-161.1 -21.48,-54.93 104.17,-181.09 873.52,-883.37l903.85 -825.02 17.33 -445.83 17.33 -445.82 1050.82 -959.19 1047.72 -956.35 460.35 26.98c251.25,11.45 489.64,40.31 530.91,60.16 46.57,26.11 92.08,13.2 130.18,-33.02 70.11,-86.73 48.94,-153.63 -52.66,-158.27zm-4990.94 -386.37c-15.63,14.28 -48.13,3.8 -70.96,-21.22 -42.81,-46.91 -19.58,-96.8 46.25,-93.8 47.84,2.18 65.38,77.91 24.71,115.02zm105.7 706.2c-25.03,22.84 -66.91,20.93 -89.74,-4.09 -22.84,-25.02 -20.93,-66.9 4.1,-89.74 25,-22.83 66.88,-20.93 89.72,4.09 22.83,25.02 20.93,66.9 -4.08,89.74zm833.15 2106.16c-25,22.83 -66.89,20.92 -89.72,-4.11 -22.83,-25.03 -20.93,-66.88 4.1,-89.72 25,-22.86 66.89,-20.95 89.72,4.08 22.83,25.03 20.93,66.89 -4.1,89.75zm-487.26 4114.11c20.64,72.86 21.99,174.83 7.86,222.17 -20.69,59 -975.39,947.66 -2845.62,2654.8 -2770.95,2529.34 -2814.72,2569.29 -2950.02,2578.13 -75.17,5.55 -199.71,-24.11 -275.57,-69.51 -169.67,-91.68 -5085.18,-5552.09 -5121.33,-5679.65 -58.57,-227.46 -118.26,-167.24 2865.36,-2890.71l2786.57 -2543.59 203.41 9.27 203.38 9.27 2543.6 2786.59c2215.33,2426.92 2551.64,2807.92 2582.36,2923.23zm-9611.67 -6133.11c-25.01,22.84 -58.32,30.32 -72.61,14.68 -37.09,-40.66 -12.75,-114.48 35.11,-112.3 65.81,3 84.43,54.8 37.5,97.62zm9707.19 10678.44c-30.46,10.61 -72.05,2.7 -92.02,-19.18 -20.01,-21.89 -24.08,-64.03 -7.89,-90.28 13.34,-29.37 48.95,-21.75 86.07,18.92 37.09,40.64 41.46,76.81 13.84,90.54zm-11799.86 -9811.68c-16.2,26.23 -46.09,24.87 -71.81,-3.28 -25.69,-28.14 -23.76,-70.02 4.36,-95.71 53.19,-48.53 106.6,28.83 67.45,98.99zm10743.19 11819.68c-53.18,48.52 -106.6,-28.84 -67.44,-98.98 16.19,-26.25 46.12,-24.87 71.81,3.28 25.69,28.13 23.78,70.01 -4.37,95.7zm-11451.43 -11735.07c-25.03,22.84 -66.91,20.93 -89.75,-4.09 -22.83,-25.02 -20.93,-66.9 4.1,-89.74 25.01,-22.84 66.89,-20.93 89.72,4.09 22.86,25.02 20.93,66.9 -4.07,89.74zm11305.86 12429.81c-73.42,32.63 -145.63,-27.62 -92.45,-76.14 28.15,-25.7 70.04,-23.79 95.73,4.36 25.69,28.15 24.31,58.05 -3.28,71.78zm-9035.76 -1670.76c-73.42,32.62 -145.63,-27.62 -92.45,-76.18 28.15,-25.69 70.01,-23.75 95.7,4.37 25.72,28.15 24.34,58.08 -3.25,71.81zm-2018.48 -1024.2c-24.48,10.87 -54.14,3.52 -68.4,-12.12 -14.26,-15.64 -18.89,-45.8 -5.84,-69.19 13.07,-23.39 45.82,-18.89 71.51,9.26 25.69,28.13 27.2,61.17 2.73,72.05zm-710.78 -188.25c-15.64,14.26 -48.68,15.76 -72.07,2.69 -23.39,-13.04 -18.89,-45.82 9.26,-71.51 28.15,-25.69 61.17,-27.18 72.05,-2.7 10.87,24.47 6.4,57.23 -9.24,71.52z"/>
  <path class="fil0" d="M9533.65 5428.58c-41.85,-1.91 -109.3,30.98 -159.36,76.66 -156.37,142.75 -5.47,383.41 206.62,333.14 200.15,-50.82 162.13,-400.26 -47.26,-409.8zm111.6 247.88c-29.1,112.55 -147.26,140.15 -227.19,52.57 -94.22,-103.19 -12.49,-252.34 121.17,-225.26 106.84,22.85 137.72,69.21 106.02,172.69z"/>
  <path class="fil0" d="M9991.38 5973.98c-142.64,38.47 -187.51,102.37 -166.71,238.18 18.73,114.78 30.16,127.26 142.74,156.4 210.32,54.53 343.16,-164.21 197.59,-323.72 -54.24,-59.4 -116.1,-83.21 -173.62,-70.86zm165.58 181.4c10.32,36.43 -25.16,91.78 -71.55,122.63 -61.99,45.14 -100.75,40.38 -154.99,-19.05 -54.24,-59.42 -55.46,-98.45 -4.87,-156.1 54,-66.46 159.63,-82.63 208.18,-29.47 8.54,9.39 18.89,45.82 23.23,81.99z"/>
  <path class="fil0" d="M10493.83 6524.42c-200.82,-0.18 -261.78,284.8 -83.53,385.84 90.4,55.06 265.11,-29.87 297.07,-139.33 32.25,-115.41 -81.68,-246.51 -213.54,-246.51zm143.66 201.38c-4.23,158.67 -147.13,203.09 -233.99,70.24 -67.68,-93 -5.53,-207.06 111.52,-210.71 105.09,-4.21 130.78,23.94 122.47,140.47z"/>
  <path class="fil0" d="M11018.15 7054.86c-119.64,-5.45 -246.38,144.65 -221.38,253.68 33.29,124.41 185.82,197.3 299.38,139.54 168.99,-91.2 113.43,-384.49 -78,-393.22zm111.57 247.89c-29.1,112.55 -147.24,140.15 -227.19,52.57 -94.19,-103.19 -12.46,-252.33 121.18,-225.27 106.86,22.86 137.71,69.22 106.01,172.7z"/>
  <path class="fil0" d="M11448.26 7614c-121.55,36.41 -167.54,124.25 -144.15,269.19 19.29,102.79 247.28,164.12 331.74,87.05 156.36,-142.75 10.24,-422.17 -187.59,-356.24zm166.79 220.4c-25.72,103.74 -144.41,143.3 -212.94,68.24 -85.62,-93.83 -22.12,-237.81 100.65,-235.22 107.69,4.92 144.25,57.55 112.29,166.98z"/>
  <path class="fil0" d="M11972.32 8150.44c-95.99,1.62 -120.73,18.47 -160.71,106.55 -57.26,138.27 -22.62,232.78 109.67,289.77 73.55,30.33 131.07,17.94 193.62,-39.13 162.61,-148.46 79.3,-359.06 -142.58,-357.19zm146.95 261.47c-52.79,105.49 -155.02,112.81 -225.56,16.69 -75.99,-108.37 -4.47,-231.01 123.19,-204.2 98.03,19.44 145.2,102.52 102.37,187.51z"/>
  <path class="fil0" d="M12502.65 8681.15c-119.65,-5.45 -246.38,144.62 -221.38,253.68 41.04,151.74 206.35,207.22 318.93,104.46 103.21,-94.22 116.97,-198.49 34.18,-289.19 -34.26,-37.52 -89.88,-67.05 -131.73,-68.95zm60.16 323.45c-58.87,42.28 -97.34,31.54 -163.01,-40.4 -99.9,-109.46 -37.22,-235.48 102.42,-208.15 127.67,26.8 162.72,178.28 60.59,248.55z"/>
  <path class="fil0" d="M12986.86 9236.77c-179.47,-8.2 -288.42,211.64 -168.51,343.01 59.95,65.67 239.42,73.84 308.24,11.03 59.4,-54.24 58.76,-237.09 -1.19,-302.76 -22.84,-25.03 -87.55,-51.97 -138.54,-51.28zm62.1 281.57c-62.55,57.1 -98.45,55.46 -161.79,-1.38 -89.33,-79 -72.74,-180.15 46.25,-225.69 36.69,-16.29 86.59,6.94 128.87,65.83 50.86,68.27 49.22,104.14 -13.33,161.24z"/>
  <path class="fil0" d="M13472.16 9768.42c-116.52,-8.3 -163.43,34.51 -193.91,177.01 -45.17,201.75 183.51,314.09 343,168.49 125.12,-114.2 27.52,-340.44 -149.09,-345.5zm137.16 213.07c-4.92,107.69 -57.55,144.25 -166.98,112.29 -168.72,-46.67 -122.74,-266.38 56.73,-258.18 95.72,4.34 112.58,29.11 110.25,145.89z"/>
  <path class="fil0" d="M13978.02 10310.03c-111.1,3.91 -238.1,159.99 -215.69,259.92 20.8,135.84 216.03,192.7 322.37,95.62 46.91,-42.81 88.92,-109.82 90.83,-151.71 4.36,-95.72 -104.38,-208.57 -197.51,-203.83zm70.11 302.92c-62.55,57.1 -98.45,55.45 -167.51,-7.62 -57.65,-50.59 -76.54,-96.42 -56.67,-137.48 56.17,-114.33 161.53,-124.51 231.8,-22.41 56.57,74.53 54.93,110.41 -7.62,167.51z"/>
  <path class="fil0" d="M9033.27 5885.35c-95.7,-4.37 -208.57,104.37 -203.83,197.51 3.38,123.06 166,238.36 266.75,198.01 186.4,-78.45 134.51,-386.53 -62.92,-395.52zm137.98 195.13c10.32,36.43 -25.16,91.75 -71.51,122.6 -102.13,70.28 -234.82,-43.65 -196.06,-170.78 39.61,-145.07 241.91,-111.87 267.57,48.18z"/>
  <path class="fil0" d="M9490.97 6430.73c-142.63,38.47 -187.51,102.34 -166.74,238.18 18.76,114.75 30.19,127.26 142.75,156.37 210.34,54.56 343.19,-164.2 197.59,-323.69 -54.24,-59.43 -116.1,-83.21 -173.6,-70.86zm165.58 181.4c10.32,36.43 -25.16,91.76 -71.54,122.63 -61.99,45.12 -100.76,40.35 -155,-19.07 -54.23,-59.43 -55.45,-98.43 -4.86,-156.08 53.97,-66.46 159.62,-82.63 208.14,-29.47 8.58,9.39 18.9,45.82 23.26,81.99z"/>
  <path class="fil0" d="M9967.17 6964.98c-124.41,33.31 -197.3,185.84 -139.51,299.37 91.2,169.02 384.46,113.46 393.19,-77.99 5.45,-119.65 -144.62,-246.38 -253.68,-221.38zm189.92 239.47c-17.15,113.11 -153.25,139.89 -244.61,39.8 -51.38,-56.31 -52.6,-95.31 -2.01,-152.96 101.71,-127.24 269.08,-50.67 246.62,113.16z"/>
  <path class="fil0" d="M10517.77 7511.63c-119.64,-5.45 -246.38,144.65 -221.4,253.69 48.26,191.03 247.96,215.13 387.77,41.64 79.27,-95.3 -28.79,-289.05 -166.37,-295.33zm114.7 245.04c-32.23,115.41 -150.39,143 -230.32,55.43 -82.79,-90.7 -22.41,-231.81 103.77,-238.05 99.11,-4.47 155.39,76.01 126.55,182.62z"/>
  <path class="fil0" d="M11003.1 8043.31c-209.4,-9.55 -279.06,334.97 -84.35,403.79 206.64,69.37 378.8,-156.59 236.06,-312.95 -45.67,-50.04 -109.86,-88.93 -151.71,-90.84zm137.98 195.11c19.28,102.79 -140.63,191.42 -227.36,121.52 -98.16,-82.39 -42.94,-241.75 85.54,-232.88 107.68,4.92 127.95,20.82 141.82,111.36z"/>
  <path class="fil0" d="M11477.89 8607.49c-200.82,-0.16 -260.67,260.87 -82.97,373.88 92.97,64.19 264.29,-11.93 296.54,-127.37 32.23,-115.41 -81.68,-246.51 -213.57,-246.51zm145.18 234.42c-21.22,70.96 -52.23,93.53 -112.32,96.78 -120.2,6.51 -191.95,-128.64 -115.81,-221.08 107.98,-132.96 286.47,-37.92 228.13,124.3z"/>
  <path class="fil0" d="M12002.24 9137.92c-119.64,-5.45 -246.38,144.65 -221.38,253.68 41.04,151.74 206.35,207.23 318.96,104.46 103.21,-94.22 116.95,-198.49 34.16,-289.19 -34.27,-37.52 -89.86,-67.04 -131.74,-68.95zm124.91 218.52c-21.09,133.91 -133.53,167.75 -227.73,64.53 -59.95,-65.67 -72.86,-111.2 -37.91,-154.57 54.24,-72.47 186.95,-90.4 241.19,-30.98 19.98,21.91 29.5,76.28 24.45,121.02z"/>
  <path class="fil0" d="M12487.54 9669.6c-113.67,-5.16 -211.96,113.24 -196.61,236.83 6.08,63.24 24.18,127 35.58,139.49 37.13,40.67 259.01,38.79 305.92,-4.02 115.72,-105.62 16.64,-364.92 -144.89,-372.3zm137.98 195.13c19.29,102.79 -140.6,191.43 -224.5,124.65 -98.13,-82.39 -71.33,-210.08 49.95,-240.51 100.2,-28.39 158.38,10.21 174.55,115.86z"/>
  <path class="fil0" d="M12971.75 10225.2c-125.62,-5.71 -182.19,51.65 -188.72,195.24 -6.83,149.54 41.69,202.72 173.59,202.72 290.83,-1.72 305.41,-387.72 15.13,-397.96zm134.31 209.95c-4.24,158.67 -147.14,203.12 -234,70.27 -67.68,-93 -5.53,-207.06 111.52,-210.74 105.09,-4.18 130.78,23.95 122.48,140.47z"/>
  <path class="fil0" d="M13486.71 10764.21c-119.64,-5.45 -246.38,144.62 -221.37,253.68 41.03,151.74 206.37,207.22 318.95,104.46 103.21,-94.22 116.95,-198.49 34.16,-289.19 -34.27,-37.52 -89.85,-67.04 -131.74,-68.95zm60.2 323.45c-58.87,42.28 -97.35,31.54 -163.01,-40.4 -99.91,-109.46 -37.23,-235.48 102.39,-208.15 127.66,26.81 162.74,178.28 60.62,248.55z"/>
  <path class="fil0" d="M8532.87 6342.1c-95.7,-4.37 -208.58,104.4 -203.81,197.53 0.92,44.98 42.67,115.84 91.73,157.03 170.07,148.65 417.96,-94.85 263.81,-263.73 -42.83,-46.91 -109.85,-88.93 -151.73,-90.83zm124.93 218.52c-17.43,119.09 -133.53,167.74 -210.61,83.29 -91.36,-100.07 -52.33,-233.18 61.89,-239.95 111.07,-3.92 162.45,52.36 148.72,156.66z"/>
  <path class="fil0" d="M9018.16 6873.78c-41.85,-1.91 -99.93,22.41 -137.45,56.67 -90.7,82.79 -86.49,187.88 7.7,291.1 102.79,112.58 272.47,72.36 327.13,-75.01 34.82,-106.31 -77.73,-267.31 -197.38,-272.76zm76.65 291.22c-109.45,99.94 -235.47,37.23 -208.14,-102.39 26.8,-127.66 178.27,-162.72 248.55,-60.62 42.28,58.9 31.53,97.37 -40.41,163.01z"/>
  <path class="fil0" d="M12441.74 10674.6c-121.28,30.45 -192.54,147.08 -162.08,268.36 50.8,200.16 400.23,162.11 409.78,-47.25 5.45,-119.65 -141.5,-249.24 -247.7,-221.11zm168.83 241.48c-37.94,109.19 -194.84,132 -253.15,30.43 -47.71,-71.12 5.05,-176.61 111.78,-216.7 85.39,-32.09 175.93,85.94 141.37,186.27z"/>
  <path class="fil0" d="M12986.31 11220.99c-119.65,-5.45 -246.38,144.62 -221.38,253.68 41.04,151.74 206.37,207.22 318.95,104.46 103.22,-94.22 116.95,-198.49 34.16,-289.19 -34.24,-37.55 -89.85,-67.05 -131.73,-68.95zm124.93 218.49c-17.96,131.07 -169.7,172.11 -245.69,63.74 -76.28,-102.4 -23.23,-213.86 102.95,-220.11 105.09,-4.21 156.47,52.1 142.74,156.37z"/>
  <path class="fil0" d="M9504.42 7582.36c-298.69,-88.56 -298.69,-88.56 -1665.4,1158.98 -1344.82,1227.56 -1344.82,1227.56 -1322.57,1528.31 8.55,141.26 37.09,172.54 1176.15,1420.39 830.74,910.11 1194.12,1289.34 1276.51,1323.08 58.74,26.64 175.26,34.95 259.82,20.82 142.08,-26.49 235.64,-106.15 1429.52,-1178.72 1415.92,-1275.27 1380.99,-1231.9 1312.49,-1570.73 -26.22,-148.06 -88.74,-222.85 -1170.7,-1408.16 -1081.96,-1185.31 -1150.75,-1254.39 -1295.82,-1293.97zm2358.15 2778.12c21.85,243.79 -69.64,344.52 -1344.56,1485.35l-1190.76 1069.71 -194.28 -11.86 -194.58 -5.87 -1088.47 -1173.61c-1162.71,-1254.95 -1244.7,-1363.59 -1203.88,-1601.52 21.09,-133.91 55.78,-171.3 1250.48,-1261.83 703.68,-642.33 1271.8,-1137.97 1335.82,-1162.02 225.99,-91.6 260.51,-60.06 1491.2,1281.9 1099.08,1204.1 1130.22,1244.47 1139.03,1379.75z"/>
  <path class="fil0" d="M9501.08 8181.64c-23.92,-1.09 -582.93,491.97 -1242.83,1094.32l-1200.94 1096.24 203.49 204.1 200.66 200.98 1204.07 -1099.08 1204.09 -1099.1 -161.9 -196.22c-90.8,-112.02 -182.72,-200.16 -206.64,-201.24zm222.52 444.76c-32.1,46.49 -560.92,534.94 -1176.47,1085.35l-1115.99 1007.19 -141.92 -174.31 -139.07 -171.18 1132.98 -1051.4c625.76,-576.93 1160.3,-1059.1 1190.75,-1069.71 36.7,-16.3 94.62,28.28 179.73,134.09 104.81,133.64 115.12,170.1 69.99,239.97z"/>
  <path class="fil0" d="M9955.93 8723.93c-27.6,13.73 -224.34,187.59 -437.31,387.69l-379.22 363.38 741.41 831.11 741.71 825.1 121.42 -99.37c320.78,-264.14 549.06,-472.52 647.11,-584.94l101.44 -121.29 -739.37 -810.02c-582.38,-637.99 -754.49,-807.69 -797.19,-791.66zm868.81 995.76l582.37 638.01 -390.94 356.85 -390.93 356.84 -713.68 -781.87 -713.72 -781.87 387.83 -353.98 390.92 -356.85 106.71 91.79c54.79,47.44 114.75,113.13 128.48,140.73 19.71,27.86 293.21,340.07 612.96,690.35z"/>
  <path class="fil0" d="M8973.37 9632.3c-24.18,4.89 -213.6,149.12 -422.06,316.46 -476.6,394.9 -496.71,441.94 -294.03,663.98 82.78,90.7 181.21,167.13 223.09,169.04 101.71,4.63 827.28,-657.68 831.91,-759.38 3.83,-83.74 -275.41,-402.2 -338.91,-390.1zm-99.88 744.77l-390.95 356.85 -157 -172.01 -157.01 -172.01 390.93 -356.84 390.94 -356.87 157.01 172.03 157 172.01 -390.92 356.84z"/>
  <path class="fil0" d="M10085.36 10881.9c-50.98,0.68 -206.53,125.46 -469.79,377.24l-394.89 377.64 185.58 203.28 185.55 203.3 427.64 -373.16c321.58,-282.08 422.49,-391.38 418.68,-439.5 -22.15,-105.92 -271.59,-354.09 -352.77,-348.8zm-69.98 746.15l-390.95 356.84 -157 -172 -157.01 -172.01 390.93 -356.84 390.94 -356.85 157.01 172.01 157 172 -390.92 356.85z"/>
  <path class="fil0" d="M9497.67 10294.63c-30.45,10.58 -220.95,178.75 -424.5,370.28l-363.62 349.12 170.48 205.58 170.47 205.61 407.38 -389.07 407.4 -389.07 -156.21 -189.97c-110.78,-133.93 -171.55,-181.66 -211.4,-162.48z"/>
  <path class="fil0" d="M8020.95 10536.03c-41.33,-13.86 -118.69,39.56 -253.71,174.28l-191.61 192.09 741.44 831.08 741.68 825.11 215.8 -196.98c168.88,-154.15 207.51,-212.33 188.88,-264.14 -40.35,-100.75 -1368.37,-1543.07 -1442.48,-1561.44zm1228.2 1791.44l-187.67 171.3 -713.69 -781.87 -713.69 -781.87 187.65 -171.3 187.64 -171.26 713.71 781.87 713.69 781.87 -187.64 171.26z"/>
  <path class="fil0" d="M8101.41 6799.03c-105.52,-52.78 -269.64,62.63 -275.35,188.25 -5.19,113.67 113.21,211.99 233.68,199.5 117.61,-15.61 181.26,-96.65 175.28,-228.81 -7.59,-96.26 -10.45,-99.38 -133.61,-158.94zm44.42 274.77c-28.7,37.65 -92.73,61.73 -137.47,56.68 -169.81,-22.73 -158.91,-262.02 12.27,-269.19 114.2,-6.8 195.08,125.78 125.2,212.51z"/>
  <path class="fil0" d="M8517.78 7330.55c-95.7,-4.36 -208.57,104.38 -203.8,197.52 0.92,45 42.65,115.86 94.58,160.17 109.59,94.94 301.15,34.72 319.41,-102.34 16.59,-101.15 -108.48,-250.72 -210.19,-255.35zm94.59 292.05c-53.71,60.51 -93.26,73.69 -151.74,41.04 -102.07,-61.6 -113.9,-131.08 -26.32,-211.01 90.7,-82.79 144.51,-80.33 206.24,12.41 30.85,46.36 22.41,99.93 -28.18,157.56z"/>
  <path class="fil0" d="M11935.35 11131.11c-151.73,41.03 -207.22,206.35 -104.45,318.95 94.22,103.19 198.49,116.95 289.19,34.16 90.7,-82.79 86.49,-187.88 -7.73,-291.09 -51.38,-56.31 -110.38,-76.97 -177.01,-62.02zm174.81 241.75c-37.94,109.16 -194.83,132 -253.15,30.42 -47.7,-71.12 5.05,-176.6 111.79,-216.72 85.38,-32.06 175.92,85.97 141.36,186.3z"/>
  <path class="fil0" d="M12507.28 11669.72c-86.07,-18.92 -175.39,33.97 -224.77,130.63 -39.15,70.16 -26.24,115.7 50.83,200.15 85.65,93.82 118.14,104.3 204.34,54.27 55.19,-27.47 108.9,-87.95 122.79,-129.28 24.9,-85.8 -67.15,-236.85 -153.19,-255.77zm103.29 232.52c-17.14,113.11 -153.25,139.88 -244.61,39.79 -51.38,-56.3 -52.6,-95.3 -2.01,-152.96 101.71,-127.23 269.08,-50.66 246.62,113.17z"/>
  <path class="fil0" d="M7583.59 7243c-97.47,-31.4 -253.02,93.37 -257.94,201.06 -1.9,41.88 22.41,99.93 56.68,137.45 34.26,37.55 89.87,67.05 131.73,68.95 113.67,5.19 249.24,-141.5 223.97,-244.55 -30.98,-109.33 -50.96,-131.21 -154.44,-162.91zm90.25 255.91c-36.03,67.28 -157.87,109.69 -225.16,73.66 -81.83,-45.7 -62.25,-212.67 26.54,-253.58 110.15,-48.92 245.14,80.12 198.62,179.92z"/>
  <path class="fil0" d="M8032.19 7790.98c-260.9,3.1 -263.55,389.63 -6.29,401.37 128.74,2.86 185.31,-54.5 191.85,-198.09 6.82,-149.54 -41.7,-202.72 -185.56,-203.28zm89.17 279.82c-98.58,124.39 -236.86,67.13 -226.64,-91.25 3.28,-71.78 25.42,-97.76 95.19,-115.57 130.39,-33.02 216.96,105.81 131.45,206.82z"/>
  <path class="fil0" d="M11500.78 11590.87c-137.61,-6.27 -171.74,19.13 -219.34,142.85 -34.56,100.36 87.12,258.77 200.79,263.95 113.66,5.16 211.98,-113.24 196.61,-236.83 -20.21,-147.79 -34.5,-163.43 -178.06,-169.97zm109 238.76c-37.96,109.17 -194.86,131.98 -253.18,30.43 -47.7,-71.12 5.06,-176.63 111.79,-216.72 85.41,-32.07 175.92,85.96 141.39,186.29z"/>
  <path class="fil0" d="M12048.46 12134.38c-67.28,-36.03 -112.84,-23.12 -197.27,53.95 -93.82,85.65 -104.3,118.14 -59.98,198.09 96.63,181.24 249.05,191.19 361.79,19.48 64.45,-98.96 24.37,-205.72 -104.54,-271.52zm51.52 251.12c-20.96,64.98 -45.7,81.83 -123.48,78.29 -179.47,-8.18 -185.95,-260.25 -5.66,-270.01 101.97,-1.35 158.24,79.14 129.14,191.72z"/>
  <path class="fil0" d="M7083.21 7699.78c-97.47,-31.43 -253.04,93.37 -257.94,201.06 -1.9,41.85 22.41,99.93 56.68,137.45 34.26,37.54 89.85,67.04 131.73,68.95 113.67,5.18 249.24,-141.5 223.97,-244.56 -31.01,-109.32 -50.98,-131.2 -154.44,-162.9zm40.75 289.59c-62.55,57.09 -98.45,55.45 -167.51,-7.62 -57.62,-50.59 -76.52,-96.42 -56.67,-137.48 56.17,-114.33 161.53,-124.51 231.83,-22.41 56.54,74.53 54.9,110.41 -7.65,167.51z"/>
  <path class="fil0" d="M7547.19 8239.45c-50.72,-5.32 -120.76,18.47 -152.03,47.02 -31.28,28.55 -61.33,96.12 -60.65,147.11 -8.17,179.46 211.65,288.39 343.01,168.51 68.79,-62.81 73.85,-239.42 8.2,-311.36 -22.86,-25.03 -87.55,-51.94 -138.53,-51.28zm62.09 281.6c-59.42,54.24 -98.45,55.45 -156.1,4.86 -89.59,-73.02 -79.51,-162.48 30.9,-217.4 52.34,-30.59 90.54,-13.87 138.54,51.27 50.85,68.27 49.21,104.17 -13.34,161.27z"/>
  <path class="fil0" d="M11006.61 12041.94c-247.01,-38.24 -305.8,330.75 -66.12,398.62 124.28,35.64 258.74,-87.1 237.97,-222.94 -17.38,-144.67 -25.95,-154.04 -171.85,-175.68zm105.63 247.59c-26.94,64.72 -54.8,84.43 -126.61,81.15 -107.66,-4.89 -104.83,-1.77 -139.75,-90.3 -26.91,-67.15 77.95,-197.25 152.58,-190.87 80.89,0.71 144.65,114.51 113.78,200.02z"/>
  <path class="fil0" d="M11533.53 12581.5c-131.05,-17.96 -217.54,38.05 -243.79,153.75 -23.38,118.82 63.74,245.67 177.41,250.85 77.76,3.55 192.67,-84.14 211.56,-170.18 25.16,-91.78 -55.99,-218.36 -145.18,-234.42zm72.05 261.04c-91.39,163.7 -334.89,47.7 -249.21,-122.24 49.63,-102.66 152.16,-115.97 226.37,-34.66 45.67,50.06 55.2,104.43 22.84,156.9z"/>
  <path class="fil0" d="M6562.57 8140.63c-119.65,-5.45 -246.38,144.62 -221.38,253.68 41.04,151.74 206.37,207.22 318.95,104.46 103.22,-94.22 116.95,-198.49 34.16,-289.19 -34.26,-37.55 -89.85,-67.05 -131.73,-68.95zm61.01 305.51c-62.55,57.1 -98.45,55.46 -167.51,-7.64 -57.62,-50.59 -76.52,-96.42 -56.67,-137.45 56.17,-114.36 161.53,-124.54 231.83,-22.41 56.54,74.5 54.9,110.41 -7.65,167.5z"/>
  <path class="fil0" d="M7046.78 8696.23c-179.47,-8.18 -288.42,211.64 -168.51,343 59.95,65.67 239.42,73.87 308.21,11.06 59.43,-54.24 58.79,-237.12 -1.16,-302.79 -22.84,-25.03 -87.55,-51.96 -138.54,-51.27zm62.1 281.57c-62.55,57.09 -98.45,55.48 -161.79,-1.38 -89.33,-79 -72.74,-180.15 46.24,-225.69 36.7,-16.3 86.6,6.96 128.88,65.83 50.86,68.26 49.22,104.17 -13.33,161.24z"/>
  <path class="fil0" d="M10485.7 12488.76c-221.9,1.88 -276.04,269.17 -77.55,386.11 108.09,61.89 265.12,-29.87 277.39,-167.19 5.85,-62.68 -11.69,-138.4 -37.38,-166.55 -25.69,-28.16 -99.51,-52.5 -162.46,-52.37zm82.9 285.54c-79.01,89.3 -180.16,72.71 -225.96,-40.29 -24.07,-64.03 80.78,-194.13 158.54,-190.58 95.73,4.36 140.18,147.26 67.42,230.87z"/>
  <path class="fil0" d="M11036.25 13035.39c-97.48,-31.4 -253.02,93.38 -257.94,201.06 -1.91,41.88 22.43,99.93 56.67,137.48 34.26,37.52 89.88,67.02 131.73,68.95 113.67,5.16 249.24,-141.53 223.97,-244.58 -30.98,-109.3 -50.95,-131.21 -154.43,-162.91zm68.63 269.91c-61.89,108.08 -219.74,85.91 -249.9,-41.36 -22.96,-87.97 50.62,-189.55 128.38,-186 92.87,1.24 167.21,145.52 121.52,227.36z"/>
  <path class="fil0" d="M6062.16 8597.38c-119.64,-5.45 -246.38,144.62 -221.38,253.68 41.04,151.74 206.35,207.22 318.96,104.46 103.19,-94.22 116.94,-198.49 34.16,-289.19 -34.27,-37.52 -89.86,-67.05 -131.74,-68.95zm60.19 323.45c-58.89,42.28 -97.36,31.54 -163.01,-40.4 -99.93,-109.46 -37.22,-235.48 102.4,-208.15 127.66,26.8 162.72,178.28 60.61,248.55z"/>
  <path class="fil0" d="M6547.46 9129.06c-101.71,-4.66 -211.69,107.23 -213.76,218.04 -5.74,125.63 51.65,182.19 195.21,188.76 143.59,6.53 205.85,-44.59 211.59,-170.21 8.04,-110.54 -91.34,-231.96 -193.04,-236.59zm137.98 195.1c19.29,102.79 -140.63,191.43 -227.36,121.53 -98.13,-82.4 -42.91,-241.75 85.57,-232.89 107.68,4.92 127.92,20.82 141.79,111.36z"/>
  <path class="fil0" d="M10000.64 12937.23c-50.69,-5.31 -117.61,15.61 -148.88,44.16 -68.79,62.81 -73.84,239.42 -8.17,311.36 59.92,65.67 218.59,69.91 290.53,4.24 31.28,-28.55 61.33,-96.1 60.65,-147.08 5.31,-50.73 -18.47,-120.76 -47.02,-152.03 -28.55,-31.28 -96.12,-61.33 -147.11,-60.65zm80.06 282.39c-108.63,81.97 -269.47,-6.29 -213.59,-114.64 52.78,-105.49 155.28,-118.8 232.38,-34.37 65.64,71.94 61.7,92.74 -18.79,149.01z"/>
  <path class="fil0" d="M10452.13 13488.33c-114.75,18.76 -127.27,30.19 -156.4,142.75 -54.53,210.34 164.2,343.19 323.72,197.59 159.49,-145.58 47.1,-375.5 -167.32,-340.34zm155.76 264.88c-58.74,105.22 -127.96,111.07 -213.6,17.25 -74.22,-81.31 -51.62,-182.19 55.11,-222.3 94.75,-40.64 210.72,111.52 158.49,205.05z"/>
  <path class="fil0" d="M5552.65 9056.75c-45,0.92 -115.83,42.68 -160.18,94.59 -69.61,80.75 -67.57,101.83 35.19,214.42 102.77,112.6 123.56,116.54 210.32,54.55 117.77,-84.56 141.16,-203.38 55.51,-297.2 -34.26,-37.52 -98.69,-70.44 -140.84,-66.36zm123.83 242.44c-32.23,115.41 -150.39,143 -230.32,55.43 -82.79,-90.7 -22.41,-231.83 103.77,-238.05 99.11,-4.47 155.39,76.02 126.55,182.62z"/>
  <path class="fil0" d="M6047.05 9585.81c-113.66,-5.19 -211.96,113.24 -196.61,236.83 6.11,63.21 24.18,126.97 35.59,139.49 37.12,40.66 259,38.78 305.91,-4.03 115.73,-105.64 16.64,-364.94 -144.89,-372.29zm128.62 203.7c-8.21,179.47 -231.17,205.27 -262.29,33 -21.88,-111.9 19.32,-160.98 127,-156.08 116.53,8.31 139.63,27.36 135.29,123.08z"/>
  <path class="fil0" d="M9500.29 13394.01c-50.72,-5.29 -117.61,15.64 -148.88,44.19 -65.7,59.92 -73.87,239.39 -11.06,308.21 54.24,59.42 237.09,58.76 302.79,-1.19 65.67,-59.96 69.9,-218.6 4.23,-290.54 -28.55,-31.27 -96.1,-61.33 -147.08,-60.67zm57.6 314.35c-68.82,62.81 -89.62,58.87 -145.89,-21.64 -53.69,-71.39 -54.64,-116.39 -4.05,-174.02 34.95,-43.36 90.14,-70.83 125.76,-63.21 94.64,28.29 111.76,178.94 24.18,258.87z"/>
  <path class="fil0" d="M9957.7 13945.38c-96.55,13.59 -130.68,39.02 -157.88,109.72 -69.34,206.64 156.58,378.8 312.95,236.06 168.89,-154.15 65.33,-380.68 -155.07,-345.78zm154.68 288.81c-75.07,68.5 -173.36,55.04 -226.51,-28.31 -70.28,-102.13 7.25,-224.47 128.93,-197.93 104,19.71 163.27,166.29 97.58,226.24z"/>
  <path class="fil0" d="M5049.41 9510.35c-195.39,12.09 -250.61,303.29 -69,395.5 99.54,52.49 263.66,-62.92 269.37,-188.54 4.37,-95.7 -104.37,-208.57 -200.37,-206.96zm123.54 248.42c-25.43,97.76 -167.24,118.27 -247.18,30.69 -62.81,-68.79 12.68,-212.22 123.75,-216.17 99.14,-4.47 155.42,76.05 123.43,185.48z"/>
  <path class="fil0" d="M5546.67 10042.59c-41.88,-1.91 -99.93,22.43 -137.48,56.67 -90.67,82.79 -86.49,187.91 7.73,291.09 102.76,112.61 272.44,72.39 327.13,-74.98 34.82,-106.33 -77.73,-267.33 -197.38,-272.78zm76.65 291.25c-118.85,108.48 -255.74,21.3 -203.94,-129.2 44.48,-120.86 174.07,-135.94 247.2,-30.69 39.42,55.75 28.66,94.22 -43.26,159.89z"/>
  <path class="fil0" d="M6001.25 10590.83c-121.28,30.45 -192.53,147.11 -162.08,268.37 50.83,200.15 400.23,162.13 409.79,-47.26 5.45,-119.64 -141.5,-249.24 -247.71,-221.11zm168.83 241.51c-37.94,109.17 -194.84,131.97 -253.15,30.4 -47.7,-71.09 5.05,-176.61 111.79,-216.69 85.38,-32.07 175.92,85.93 141.36,186.29z"/>
  <path class="fil0" d="M6564.07 11132.06c-142.21,-36.46 -291.67,151.55 -225.61,280.46 68.93,132.03 208.02,171.34 304.96,82.84 46.91,-42.84 88.93,-109.86 90.83,-151.74 3.55,-77.76 -84.13,-192.67 -170.18,-211.56zm106.42 229.66c-17.14,113.11 -153.25,139.88 -244.61,39.79 -77.07,-84.45 -18.04,-195.66 102.16,-202.17 105.09,-4.2 156.47,52.1 142.45,162.38z"/>
  <path class="fil0" d="M7031.14 11668.87c-209.36,-9.55 -279.03,334.99 -84.35,403.81 206.67,69.35 378.83,-156.58 236.09,-312.95 -45.69,-50.06 -109.85,-88.95 -151.74,-90.86zm137.98 195.13c10.35,36.44 -25.16,91.76 -71.51,122.64 -102.13,70.27 -234.82,-43.68 -196.06,-170.82 39.61,-145.04 241.91,-111.84 267.57,48.18z"/>
  <path class="fil0" d="M7488.87 12214.29c-142.63,38.44 -187.51,102.34 -166.71,238.17 18.73,114.75 30.16,127.27 142.72,156.37 210.34,54.56 343.19,-164.2 197.59,-323.69 -54.24,-59.42 -116.1,-83.24 -173.6,-70.85zm104.25 277.49c-78.19,71.39 -105.25,73.13 -165.21,7.46 -54.24,-59.42 -55.45,-98.45 -4.87,-156.08 66.76,-83.9 171.59,-82.1 227.33,10.35 22.57,31.01 2.17,84.03 -57.25,138.27z"/>
  <path class="fil0" d="M8048.55 12758.35c-145.34,-33.6 -274.67,107.37 -236.75,261.96 47.97,197.01 397.67,153.01 406.95,-50.4 3.55,-77.76 -84.14,-192.67 -170.2,-211.56zm106.44 229.63c-17.15,113.14 -153.25,139.89 -244.61,39.82 -77.07,-84.45 -18.07,-195.66 102.13,-202.17 105.09,-4.2 156.47,52.1 142.48,162.35z"/>
  <path class="fil0" d="M8515.64 13295.16c-161.53,-7.35 -283.79,241.86 -178.14,357.56 74.21,81.31 281.83,63.79 334.03,-29.74 26.12,-46.75 43.95,-108.9 39.32,-139.06 -11.01,-87.45 -117.45,-185.21 -195.21,-188.76zm114.72 245.03c-32.25,115.41 -150.38,143.01 -230.32,55.43 -82.78,-90.7 -22.41,-231.8 103.77,-238.04 99.12,-4.47 155.39,76.01 126.55,182.61z"/>
  <path class="fil0" d="M8973.34 13840.57c-142.61,38.45 -187.48,102.34 -166.71,238.18 18.76,114.75 30.16,127.27 142.74,156.37 210.32,54.56 343.19,-164.2 197.59,-323.69 -54.24,-59.43 -116.1,-83.21 -173.62,-70.86zm165.58 181.4c10.35,36.44 -25.16,91.76 -71.52,122.61 -105.25,73.16 -255.05,-59.58 -178.64,-158.01 99.14,-136.34 224.23,-118.66 250.16,35.4z"/>
  <path class="fil0" d="M9460.44 14399.29c-135.81,20.77 -200,113.78 -164.12,247.28 30.16,127.27 156.45,184 270.27,120.23 211.99,-113.21 129.36,-404.73 -106.15,-367.51zm168.44 184.52c14.26,147.51 -150.26,205.96 -234.82,88.22 -76.25,-102.4 -23.21,-213.89 102.95,-220.11 99.11,-4.47 119.38,11.43 131.87,131.89z"/>
  <path class="fil0" d="M4626.77 9970.67c-67.28,-36.03 -115.7,-26.24 -181.37,33.68 -106.34,97.08 -116.95,198.49 -31.3,292.32 82.78,90.69 203.25,78.21 295.03,-28.5 88.37,-97.9 49.37,-228.55 -82.36,-297.5zm54.64 248.26c-94.54,166.56 -334.89,47.68 -249.22,-122.24 36.6,-79.27 177.86,-87.81 246.36,-12.75 28.55,31.27 28.68,94.22 2.86,134.99z"/>
  <path class="fil0" d="M5046.29 10499.34c-41.88,-1.91 -99.93,22.41 -137.45,56.67 -90.7,82.79 -86.52,187.88 7.7,291.09 102.76,112.58 272.47,72.37 327.13,-75.01 34.82,-106.3 -77.73,-267.3 -197.38,-272.75zm76.65 291.22c-71.94,65.67 -111.23,72.87 -163.17,28.55 -98.13,-82.42 -71.33,-210.08 53.08,-243.36 154.57,-37.92 228.94,106.33 110.09,214.81z"/>
  <path class="fil0" d="M5494.89 11047.31c-151.74,41.04 -207.24,206.38 -104.45,318.96 94.19,103.21 198.49,116.95 289.16,34.16 90.7,-82.79 86.52,-187.88 -7.7,-291.1 -51.38,-56.27 -110.38,-76.96 -177.01,-62.02zm174.81 241.78c-37.94,109.17 -194.84,131.97 -253.15,30.4 -47.73,-71.09 5.05,-176.61 111.79,-216.69 85.38,-32.07 175.92,85.93 141.36,186.29z"/>
  <path class="fil0" d="M6000.17 11600.88c-150.92,23.09 -214.16,161.1 -129.59,278.84 81.7,114.64 200.52,138.03 291.22,55.25 146.98,-134.18 34.29,-358.12 -161.63,-334.09zm159.73 244.07c-20.93,64.99 -45.7,81.84 -123.46,78.32 -179.46,-8.2 -185.97,-260.27 -5.69,-270.03 101.97,-1.35 158.25,79.16 129.15,191.71z"/>
  <path class="fil0" d="M6530.76 12125.62c-41.88,-1.9 -99.93,22.44 -137.47,56.68 -90.7,82.79 -86.5,187.9 7.72,291.09 102.77,112.61 272.44,72.39 327.13,-74.98 34.82,-106.34 -77.73,-267.34 -197.38,-272.79zm137.98 195.13c10.32,36.44 -25.18,91.79 -71.54,122.64 -102.1,70.27 -234.79,-43.68 -196.03,-170.79 39.58,-145.07 241.88,-111.87 267.57,48.15z"/>
  <path class="fil0" d="M6979.39 12673.63c-151.74,41.04 -207.22,206.35 -104.46,318.93 94.2,103.21 198.49,116.97 289.19,34.18 90.7,-82.79 86.5,-187.91 -7.72,-291.09 -51.38,-56.31 -110.39,-76.97 -177.01,-62.02zm174.81 241.75c-37.94,109.17 -194.84,132 -253.15,30.43 -47.73,-71.12 5.05,-176.61 111.78,-216.72 85.39,-32.07 175.93,85.96 141.37,186.29z"/>
  <path class="fil0" d="M7467.26 13214.38c-140.6,59.54 -191.32,186.11 -112.21,291.63 81.7,114.64 200.52,138.03 291.22,55.24 93.82,-85.64 92.48,-187.61 -4.57,-293.95 -59.96,-65.67 -107.27,-79.82 -174.44,-52.92zm187.32 230.35c-17.14,113.14 -153.25,139.89 -244.61,39.82 -77.07,-84.45 -18.04,-195.66 102.16,-202.17 105.09,-4.2 156.47,52.1 142.45,162.35z"/>
  <path class="fil0" d="M8015.26 13751.94c-41.88,-1.91 -99.93,22.41 -137.48,56.67 -90.7,82.79 -86.49,187.88 7.73,291.1 99.91,109.45 236.01,82.68 308.64,-63.87 42.57,-78.98 32.78,-127.37 -27.18,-193.07 -42.81,-46.91 -109.85,-88.93 -151.71,-90.83zm137.98 195.13c10.32,36.43 -25.19,91.76 -71.54,122.61 -102.13,70.3 -234.79,-43.66 -196.03,-170.79 39.58,-145.07 241.88,-111.87 267.57,48.18z"/>
  <path class="fil0" d="M8445.37 14311.06c-146.05,47.3 -184.26,162.45 -91.15,289.58 81.7,114.62 200.53,138.04 291.23,55.25 159.49,-145.6 3.73,-410.48 -200.08,-344.83zm193.17 167.66c10.32,36.44 -25.16,91.79 -71.54,122.64 -105.23,73.13 -255.06,-59.59 -178.62,-158.01 99.14,-136.37 224.2,-118.67 250.16,35.37z"/>
  <path class="fil0" d="M8949.16 14831.57c-151.74,41.04 -207.22,206.38 -104.46,318.96 94.2,103.21 198.49,116.94 289.19,34.15 90.7,-82.78 86.5,-187.88 -7.72,-291.09 -51.38,-56.28 -110.39,-76.97 -177.01,-62.02zm189.89 239.45c-17.14,113.13 -153.22,139.88 -244.58,39.82 -51.38,-56.31 -52.6,-95.33 -2.04,-152.96 101.74,-127.24 269.09,-50.69 246.62,113.14z"/>
 </g>
</svg>
