<svg width="77" height="270" viewBox="0 0 77 270" fill="none" xmlns="http://www.w3.org/2000/svg">
<g filter="url(#filter0_f_859_74)">
<path d="M8 157.554L68 157.554" stroke="#5E9ED5"/>
</g>
<path d="M8 264.887L10.8868 262L8 259.113L5.11325 262L8 264.887ZM8 4.11324L5.11325 6.99999L8 9.88674L10.8868 6.99999L8 4.11324ZM8 262H8.5L8.5 6.99999H8H7.5L7.5 262H8Z" fill="white"/>
<path d="M8 261L8 14" stroke="white"/>
<path d="M72.2408 57L69.354 59.8868L66.4673 57L69.354 54.1132L72.2408 57ZM8.354 57V56.5L69.354 56.5V57V57.5L8.354 57.5V57Z" fill="white"/>
<g filter="url(#filter1_f_859_74)">
<path d="M8.354 57L69.354 57" stroke="#5E9ED5"/>
</g>
<path d="M70.8868 208L68 205.113L65.1132 208L68 210.887L70.8868 208ZM8 208L8 208.5L68 208.5L68 208L68 207.5L8 207.5L8 208Z" fill="white"/>
<g filter="url(#filter2_f_859_74)">
<path d="M8 208L68 208" stroke="#5E9ED5"/>
</g>
<g filter="url(#filter3_f_859_74)">
<path d="M8 208L68 208" stroke="#5E9ED5"/>
</g>
<g filter="url(#filter4_f_859_74)">
<rect x="8.35742" y="4" width="4.94491" height="4.74805" transform="rotate(45 8.35742 4)" fill="white"/>
</g>
<g filter="url(#filter5_f_859_74)">
<rect width="5.86155" height="5.43258" transform="matrix(-0.583589 0.812049 0.583589 0.812049 69.1836 52.8286)" fill="#5E9ED5"/>
</g>
<path d="M71.8868 107.171L69 110.058L66.1133 107.171L69 104.285L71.8868 107.171ZM8 107.171V106.671L69 106.671V107.171V107.671L8 107.671V107.171Z" fill="white"/>
<g filter="url(#filter6_f_859_74)">
<path d="M8 107.171L69 107.171" stroke="#5E9ED5"/>
</g>
<g filter="url(#filter7_f_859_74)">
<rect width="5.03295" height="4.93171" transform="matrix(-0.583589 0.812049 0.583589 0.812049 69.0591 102.908)" fill="#5E9ED5"/>
</g>
<path d="M72.2408 57L69.354 59.8868L66.4673 57L69.354 54.1132L72.2408 57ZM8.354 57V56.5L69.354 56.5V57V57.5L8.354 57.5V57Z" fill="white"/>
<g filter="url(#filter8_f_859_74)">
<path d="M8.354 57L69.354 57" stroke="#5E9ED5"/>
</g>
<g filter="url(#filter9_f_859_74)">
<rect width="4.43926" height="4.73498" transform="matrix(-0.583589 0.812049 0.583589 0.812049 69.5908 53.395)" fill="#5E9ED5"/>
</g>
<g filter="url(#filter10_d_859_74)">
<path d="M12.6196 106.856L8.09598 111.38L3.57233 106.856L8.09598 102.333L12.6196 106.856Z" fill="#B69E5E"/>
</g>
<g filter="url(#filter11_i_859_74)">
<path d="M8.0957 52.1177L12.6194 56.6413L8.0957 61.165L3.57205 56.6413L8.0957 52.1177Z" fill="#B69E5E"/>
</g>
<g filter="url(#filter12_f_859_74)">
<rect width="6.64261" height="6.59187" transform="matrix(0.397333 0.917674 -0.397333 0.917674 68.3608 201.904)" fill="#5E9ED5"/>
</g>
<path d="M70.8868 157.554L68 154.667L65.1132 157.554L68 160.441L70.8868 157.554ZM8 157.554L8 158.054L68 158.054L68 157.554L68 157.054L8 157.054L8 157.554Z" fill="white"/>
<g filter="url(#filter13_f_859_74)">
<path d="M8 157.554L68 157.554" stroke="#5E9ED5"/>
</g>
<g filter="url(#filter14_d_859_74)">
<path d="M12.0474 157.523L7.52371 162.047L3.00007 157.523L7.52371 153L12.0474 157.523Z" fill="#B69E5E"/>
</g>
<g filter="url(#filter15_d_859_74)">
<path d="M12.0474 207.523L7.52371 212.047L3.00007 207.523L7.52371 203L12.0474 207.523Z" fill="#B69E5E"/>
</g>
<g filter="url(#filter16_f_859_74)">
<rect width="5.70269" height="5.6491" transform="matrix(-0.583589 0.812049 0.583589 0.812049 68 153)" fill="#5E9ED5"/>
</g>
<g filter="url(#filter17_f_859_74)">
<rect x="7.98975" y="258.632" width="4.7343" height="4.74805" transform="rotate(45 7.98975 258.632)" fill="white"/>
</g>
<defs>
<filter id="filter0_f_859_74" x="4" y="153.054" width="68" height="9" filterUnits="userSpaceOnUse" color-interpolation-filters="sRGB">
<feFlood flood-opacity="0" result="BackgroundImageFix"/>
<feBlend mode="normal" in="SourceGraphic" in2="BackgroundImageFix" result="shape"/>
<feGaussianBlur stdDeviation="2" result="effect1_foregroundBlur_859_74"/>
</filter>
<filter id="filter1_f_859_74" x="4.354" y="52.5" width="69" height="9" filterUnits="userSpaceOnUse" color-interpolation-filters="sRGB">
<feFlood flood-opacity="0" result="BackgroundImageFix"/>
<feBlend mode="normal" in="SourceGraphic" in2="BackgroundImageFix" result="shape"/>
<feGaussianBlur stdDeviation="2" result="effect1_foregroundBlur_859_74"/>
</filter>
<filter id="filter2_f_859_74" x="4" y="203.5" width="68" height="9" filterUnits="userSpaceOnUse" color-interpolation-filters="sRGB">
<feFlood flood-opacity="0" result="BackgroundImageFix"/>
<feBlend mode="normal" in="SourceGraphic" in2="BackgroundImageFix" result="shape"/>
<feGaussianBlur stdDeviation="2" result="effect1_foregroundBlur_859_74"/>
</filter>
<filter id="filter3_f_859_74" x="4" y="203.5" width="68" height="9" filterUnits="userSpaceOnUse" color-interpolation-filters="sRGB">
<feFlood flood-opacity="0" result="BackgroundImageFix"/>
<feBlend mode="normal" in="SourceGraphic" in2="BackgroundImageFix" result="shape"/>
<feGaussianBlur stdDeviation="2" result="effect1_foregroundBlur_859_74"/>
</filter>
<filter id="filter4_f_859_74" x="1" y="0" width="14.854" height="14.854" filterUnits="userSpaceOnUse" color-interpolation-filters="sRGB">
<feFlood flood-opacity="0" result="BackgroundImageFix"/>
<feBlend mode="normal" in="SourceGraphic" in2="BackgroundImageFix" result="shape"/>
<feGaussianBlur stdDeviation="2" result="effect1_foregroundBlur_859_74"/>
</filter>
<filter id="filter5_f_859_74" x="61.7627" y="48.8286" width="14.5913" height="17.1714" filterUnits="userSpaceOnUse" color-interpolation-filters="sRGB">
<feFlood flood-opacity="0" result="BackgroundImageFix"/>
<feBlend mode="normal" in="SourceGraphic" in2="BackgroundImageFix" result="shape"/>
<feGaussianBlur stdDeviation="2" result="effect1_foregroundBlur_859_74"/>
</filter>
<filter id="filter6_f_859_74" x="4" y="102.671" width="69" height="9" filterUnits="userSpaceOnUse" color-interpolation-filters="sRGB">
<feFlood flood-opacity="0" result="BackgroundImageFix"/>
<feBlend mode="normal" in="SourceGraphic" in2="BackgroundImageFix" result="shape"/>
<feGaussianBlur stdDeviation="2" result="effect1_foregroundBlur_859_74"/>
</filter>
<filter id="filter7_f_859_74" x="62.1221" y="98.9082" width="13.8149" height="16.0918" filterUnits="userSpaceOnUse" color-interpolation-filters="sRGB">
<feFlood flood-opacity="0" result="BackgroundImageFix"/>
<feBlend mode="normal" in="SourceGraphic" in2="BackgroundImageFix" result="shape"/>
<feGaussianBlur stdDeviation="2" result="effect1_foregroundBlur_859_74"/>
</filter>
<filter id="filter8_f_859_74" x="4.354" y="52.5" width="69" height="9" filterUnits="userSpaceOnUse" color-interpolation-filters="sRGB">
<feFlood flood-opacity="0" result="BackgroundImageFix"/>
<feBlend mode="normal" in="SourceGraphic" in2="BackgroundImageFix" result="shape"/>
<feGaussianBlur stdDeviation="2" result="effect1_foregroundBlur_859_74"/>
</filter>
<filter id="filter9_f_859_74" x="63" y="49.395" width="13.354" height="15.4497" filterUnits="userSpaceOnUse" color-interpolation-filters="sRGB">
<feFlood flood-opacity="0" result="BackgroundImageFix"/>
<feBlend mode="normal" in="SourceGraphic" in2="BackgroundImageFix" result="shape"/>
<feGaussianBlur stdDeviation="2" result="effect1_foregroundBlur_859_74"/>
</filter>
<filter id="filter10_d_859_74" x="3.57227" y="102.333" width="10.0474" height="9.04688" filterUnits="userSpaceOnUse" color-interpolation-filters="sRGB">
<feFlood flood-opacity="0" result="BackgroundImageFix"/>
<feColorMatrix in="SourceAlpha" type="matrix" values="0 0 0 0 0 0 0 0 0 0 0 0 0 0 0 0 0 0 127 0" result="hardAlpha"/>
<feOffset dx="1"/>
<feComposite in2="hardAlpha" operator="out"/>
<feColorMatrix type="matrix" values="0 0 0 0 0.376667 0 0 0 0 0.319396 0 0 0 0 0.166675 0 0 0 1 0"/>
<feBlend mode="normal" in2="BackgroundImageFix" result="effect1_dropShadow_859_74"/>
<feBlend mode="normal" in="SourceGraphic" in2="effect1_dropShadow_859_74" result="shape"/>
</filter>
<filter id="filter11_i_859_74" x="3.57227" y="52.1177" width="9.04688" height="9.04736" filterUnits="userSpaceOnUse" color-interpolation-filters="sRGB">
<feFlood flood-opacity="0" result="BackgroundImageFix"/>
<feBlend mode="normal" in="SourceGraphic" in2="BackgroundImageFix" result="shape"/>
<feColorMatrix in="SourceAlpha" type="matrix" values="0 0 0 0 0 0 0 0 0 0 0 0 0 0 0 0 0 0 127 0" result="hardAlpha"/>
<feOffset dx="-1"/>
<feComposite in2="hardAlpha" operator="arithmetic" k2="-1" k3="1"/>
<feColorMatrix type="matrix" values="0 0 0 0 0.376667 0 0 0 0 0.319396 0 0 0 0 0.166675 0 0 0 1 0"/>
<feBlend mode="normal" in2="shape" result="effect1_innerShadow_859_74"/>
</filter>
<filter id="filter12_f_859_74" x="61.7417" y="197.904" width="13.2583" height="20.145" filterUnits="userSpaceOnUse" color-interpolation-filters="sRGB">
<feFlood flood-opacity="0" result="BackgroundImageFix"/>
<feBlend mode="normal" in="SourceGraphic" in2="BackgroundImageFix" result="shape"/>
<feGaussianBlur stdDeviation="2" result="effect1_foregroundBlur_859_74"/>
</filter>
<filter id="filter13_f_859_74" x="4" y="153.054" width="68" height="9" filterUnits="userSpaceOnUse" color-interpolation-filters="sRGB">
<feFlood flood-opacity="0" result="BackgroundImageFix"/>
<feBlend mode="normal" in="SourceGraphic" in2="BackgroundImageFix" result="shape"/>
<feGaussianBlur stdDeviation="2" result="effect1_foregroundBlur_859_74"/>
</filter>
<filter id="filter14_d_859_74" x="3" y="153" width="10.0474" height="9.04688" filterUnits="userSpaceOnUse" color-interpolation-filters="sRGB">
<feFlood flood-opacity="0" result="BackgroundImageFix"/>
<feColorMatrix in="SourceAlpha" type="matrix" values="0 0 0 0 0 0 0 0 0 0 0 0 0 0 0 0 0 0 127 0" result="hardAlpha"/>
<feOffset dx="1"/>
<feComposite in2="hardAlpha" operator="out"/>
<feColorMatrix type="matrix" values="0 0 0 0 0.376667 0 0 0 0 0.319396 0 0 0 0 0.166675 0 0 0 1 0"/>
<feBlend mode="normal" in2="BackgroundImageFix" result="effect1_dropShadow_859_74"/>
<feBlend mode="normal" in="SourceGraphic" in2="effect1_dropShadow_859_74" result="shape"/>
</filter>
<filter id="filter15_d_859_74" x="3" y="203" width="10.0474" height="9.04688" filterUnits="userSpaceOnUse" color-interpolation-filters="sRGB">
<feFlood flood-opacity="0" result="BackgroundImageFix"/>
<feColorMatrix in="SourceAlpha" type="matrix" values="0 0 0 0 0 0 0 0 0 0 0 0 0 0 0 0 0 0 127 0" result="hardAlpha"/>
<feOffset dx="1"/>
<feComposite in2="hardAlpha" operator="out"/>
<feColorMatrix type="matrix" values="0 0 0 0 0.376667 0 0 0 0 0.319396 0 0 0 0 0.166675 0 0 0 1 0"/>
<feBlend mode="normal" in2="BackgroundImageFix" result="effect1_dropShadow_859_74"/>
<feBlend mode="normal" in="SourceGraphic" in2="effect1_dropShadow_859_74" result="shape"/>
</filter>
<filter id="filter16_f_859_74" x="60.6719" y="149" width="14.625" height="17.2183" filterUnits="userSpaceOnUse" color-interpolation-filters="sRGB">
<feFlood flood-opacity="0" result="BackgroundImageFix"/>
<feBlend mode="normal" in="SourceGraphic" in2="BackgroundImageFix" result="shape"/>
<feGaussianBlur stdDeviation="2" result="effect1_foregroundBlur_859_74"/>
</filter>
<filter id="filter17_f_859_74" x="0.632324" y="254.632" width="14.7051" height="14.7051" filterUnits="userSpaceOnUse" color-interpolation-filters="sRGB">
<feFlood flood-opacity="0" result="BackgroundImageFix"/>
<feBlend mode="normal" in="SourceGraphic" in2="BackgroundImageFix" result="shape"/>
<feGaussianBlur stdDeviation="2" result="effect1_foregroundBlur_859_74"/>
</filter>
</defs>
</svg>
