<svg width="796" height="399" viewBox="0 0 796 399" fill="none" xmlns="http://www.w3.org/2000/svg">
<path d="M789.887 230L787 227.113L784.113 230L787 232.887L789.887 230ZM6.11322 230L9 232.887L11.8868 230L9 227.113L6.11322 230ZM787 229.5L9 229.5V230.5L787 230.5V229.5Z" fill="white"/>
<path d="M787 230L9 230" stroke="white"/>
<path d="M244 117.113L241.113 120L244 122.887L246.887 120L244 117.113ZM244.5 230L244.5 120L243.5 120L243.5 230L244.5 230Z" fill="white"/>
<g filter="url(#filter0_f_331_22)">
<path d="M244 230L244 120" stroke="#5E9ED5"/>
</g>
<path d="M141 322.887L143.887 320L141 317.113L138.113 320L141 322.887ZM140.5 230V320H141.5V230H140.5Z" fill="white"/>
<g filter="url(#filter1_f_331_22)">
<path d="M141 230V320" stroke="#5E9ED5"/>
</g>
<path d="M518 391.887L520.887 389L518 386.113L515.113 389L518 391.887ZM517.5 230V389H518.5V230H517.5Z" fill="white"/>
<g filter="url(#filter2_f_331_22)">
<path d="M518 230V389" stroke="#5E9ED5"/>
</g>
<path d="M621 6.11325L618.113 9.00002L621 11.8868L623.887 9.00002L621 6.11325ZM621.5 230L621.5 9.00002L620.5 9.00002L620.5 230L621.5 230Z" fill="white"/>
<g filter="url(#filter3_f_331_22)">
<path d="M621 230L621 9.00001" stroke="#5E9ED5"/>
</g>
<g filter="url(#filter4_f_331_22)">
<rect x="239" y="120.096" width="7.2071" height="6.67966" transform="rotate(-45 239 120.096)" fill="#5E9ED5"/>
</g>
<g filter="url(#filter5_f_331_22)">
<rect x="4" y="230.096" width="7.2071" height="6.67966" transform="rotate(-45 4 230.096)" fill="white"/>
</g>
<g filter="url(#filter6_f_331_22)">
<rect x="782" y="230.096" width="7.2071" height="6.67966" transform="rotate(-45 782 230.096)" fill="white"/>
</g>
<g filter="url(#filter7_f_331_22)">
<rect x="513" y="390.096" width="7.2071" height="6.67966" transform="rotate(-45 513 390.096)" fill="#5E9ED5"/>
</g>
<g filter="url(#filter8_f_331_22)">
<rect x="136" y="320.096" width="7.2071" height="6.67966" transform="rotate(-45 136 320.096)" fill="#5E9ED5"/>
</g>
<g filter="url(#filter9_d_331_22)">
<path d="M512 230.363L518.364 223.999L524.728 230.363L518.364 236.727L512 230.363Z" fill="#B69E5E"/>
</g>
<g filter="url(#filter10_d_331_22)">
<path d="M244.364 223.999L250.728 230.363L244.364 236.727L238 230.363L244.364 223.999Z" fill="#B69E5E"/>
</g>
<g filter="url(#filter11_d_331_22)">
<path d="M135 230.363L141.364 223.999L147.728 230.363L141.364 236.727L135 230.363Z" fill="#B69E5E"/>
</g>
<g filter="url(#filter12_d_331_22)">
<path d="M615 230.363L621.364 223.999L627.728 230.363L621.364 236.727L615 230.363Z" fill="#B69E5E"/>
</g>
<g filter="url(#filter13_f_331_22)">
<rect x="616" y="9.09619" width="7.2071" height="6.67966" transform="rotate(-45 616 9.09619)" fill="#5E9ED5"/>
</g>
<defs>
<filter id="filter0_f_331_22" x="239.5" y="116" width="9" height="118" filterUnits="userSpaceOnUse" color-interpolation-filters="sRGB">
<feFlood flood-opacity="0" result="BackgroundImageFix"/>
<feBlend mode="normal" in="SourceGraphic" in2="BackgroundImageFix" result="shape"/>
<feGaussianBlur stdDeviation="2" result="effect1_foregroundBlur_331_22"/>
</filter>
<filter id="filter1_f_331_22" x="136.5" y="226" width="9" height="98" filterUnits="userSpaceOnUse" color-interpolation-filters="sRGB">
<feFlood flood-opacity="0" result="BackgroundImageFix"/>
<feBlend mode="normal" in="SourceGraphic" in2="BackgroundImageFix" result="shape"/>
<feGaussianBlur stdDeviation="2" result="effect1_foregroundBlur_331_22"/>
</filter>
<filter id="filter2_f_331_22" x="513.5" y="226" width="9" height="167" filterUnits="userSpaceOnUse" color-interpolation-filters="sRGB">
<feFlood flood-opacity="0" result="BackgroundImageFix"/>
<feBlend mode="normal" in="SourceGraphic" in2="BackgroundImageFix" result="shape"/>
<feGaussianBlur stdDeviation="2" result="effect1_foregroundBlur_331_22"/>
</filter>
<filter id="filter3_f_331_22" x="616.5" y="5" width="9" height="229" filterUnits="userSpaceOnUse" color-interpolation-filters="sRGB">
<feFlood flood-opacity="0" result="BackgroundImageFix"/>
<feBlend mode="normal" in="SourceGraphic" in2="BackgroundImageFix" result="shape"/>
<feGaussianBlur stdDeviation="2" result="effect1_foregroundBlur_331_22"/>
</filter>
<filter id="filter4_f_331_22" x="235" y="111" width="17.8193" height="17.8193" filterUnits="userSpaceOnUse" color-interpolation-filters="sRGB">
<feFlood flood-opacity="0" result="BackgroundImageFix"/>
<feBlend mode="normal" in="SourceGraphic" in2="BackgroundImageFix" result="shape"/>
<feGaussianBlur stdDeviation="2" result="effect1_foregroundBlur_331_22"/>
</filter>
<filter id="filter5_f_331_22" x="0" y="221" width="17.8193" height="17.8193" filterUnits="userSpaceOnUse" color-interpolation-filters="sRGB">
<feFlood flood-opacity="0" result="BackgroundImageFix"/>
<feBlend mode="normal" in="SourceGraphic" in2="BackgroundImageFix" result="shape"/>
<feGaussianBlur stdDeviation="2" result="effect1_foregroundBlur_331_22"/>
</filter>
<filter id="filter6_f_331_22" x="778" y="221" width="17.8193" height="17.8193" filterUnits="userSpaceOnUse" color-interpolation-filters="sRGB">
<feFlood flood-opacity="0" result="BackgroundImageFix"/>
<feBlend mode="normal" in="SourceGraphic" in2="BackgroundImageFix" result="shape"/>
<feGaussianBlur stdDeviation="2" result="effect1_foregroundBlur_331_22"/>
</filter>
<filter id="filter7_f_331_22" x="509" y="381" width="17.8193" height="17.8193" filterUnits="userSpaceOnUse" color-interpolation-filters="sRGB">
<feFlood flood-opacity="0" result="BackgroundImageFix"/>
<feBlend mode="normal" in="SourceGraphic" in2="BackgroundImageFix" result="shape"/>
<feGaussianBlur stdDeviation="2" result="effect1_foregroundBlur_331_22"/>
</filter>
<filter id="filter8_f_331_22" x="132" y="311" width="17.8193" height="17.8193" filterUnits="userSpaceOnUse" color-interpolation-filters="sRGB">
<feFlood flood-opacity="0" result="BackgroundImageFix"/>
<feBlend mode="normal" in="SourceGraphic" in2="BackgroundImageFix" result="shape"/>
<feGaussianBlur stdDeviation="2" result="effect1_foregroundBlur_331_22"/>
</filter>
<filter id="filter9_d_331_22" x="511" y="224" width="13.728" height="12.7275" filterUnits="userSpaceOnUse" color-interpolation-filters="sRGB">
<feFlood flood-opacity="0" result="BackgroundImageFix"/>
<feColorMatrix in="SourceAlpha" type="matrix" values="0 0 0 0 0 0 0 0 0 0 0 0 0 0 0 0 0 0 127 0" result="hardAlpha"/>
<feOffset dx="-1"/>
<feComposite in2="hardAlpha" operator="out"/>
<feColorMatrix type="matrix" values="0 0 0 0 0.376667 0 0 0 0 0.319396 0 0 0 0 0.166675 0 0 0 1 0"/>
<feBlend mode="normal" in2="BackgroundImageFix" result="effect1_dropShadow_331_22"/>
<feBlend mode="normal" in="SourceGraphic" in2="effect1_dropShadow_331_22" result="shape"/>
</filter>
<filter id="filter10_d_331_22" x="238" y="223.999" width="13.728" height="12.728" filterUnits="userSpaceOnUse" color-interpolation-filters="sRGB">
<feFlood flood-opacity="0" result="BackgroundImageFix"/>
<feColorMatrix in="SourceAlpha" type="matrix" values="0 0 0 0 0 0 0 0 0 0 0 0 0 0 0 0 0 0 127 0" result="hardAlpha"/>
<feOffset dx="1"/>
<feComposite in2="hardAlpha" operator="out"/>
<feColorMatrix type="matrix" values="0 0 0 0 0.376667 0 0 0 0 0.319396 0 0 0 0 0.166675 0 0 0 1 0"/>
<feBlend mode="normal" in2="BackgroundImageFix" result="effect1_dropShadow_331_22"/>
<feBlend mode="normal" in="SourceGraphic" in2="effect1_dropShadow_331_22" result="shape"/>
</filter>
<filter id="filter11_d_331_22" x="134" y="224" width="13.728" height="12.7275" filterUnits="userSpaceOnUse" color-interpolation-filters="sRGB">
<feFlood flood-opacity="0" result="BackgroundImageFix"/>
<feColorMatrix in="SourceAlpha" type="matrix" values="0 0 0 0 0 0 0 0 0 0 0 0 0 0 0 0 0 0 127 0" result="hardAlpha"/>
<feOffset dx="-1"/>
<feComposite in2="hardAlpha" operator="out"/>
<feColorMatrix type="matrix" values="0 0 0 0 0.376667 0 0 0 0 0.319396 0 0 0 0 0.166675 0 0 0 1 0"/>
<feBlend mode="normal" in2="BackgroundImageFix" result="effect1_dropShadow_331_22"/>
<feBlend mode="normal" in="SourceGraphic" in2="effect1_dropShadow_331_22" result="shape"/>
</filter>
<filter id="filter12_d_331_22" x="615" y="224" width="13.728" height="12.7275" filterUnits="userSpaceOnUse" color-interpolation-filters="sRGB">
<feFlood flood-opacity="0" result="BackgroundImageFix"/>
<feColorMatrix in="SourceAlpha" type="matrix" values="0 0 0 0 0 0 0 0 0 0 0 0 0 0 0 0 0 0 127 0" result="hardAlpha"/>
<feOffset dx="1"/>
<feComposite in2="hardAlpha" operator="out"/>
<feColorMatrix type="matrix" values="0 0 0 0 0.376667 0 0 0 0 0.319396 0 0 0 0 0.166675 0 0 0 1 0"/>
<feBlend mode="normal" in2="BackgroundImageFix" result="effect1_dropShadow_331_22"/>
<feBlend mode="normal" in="SourceGraphic" in2="effect1_dropShadow_331_22" result="shape"/>
</filter>
<filter id="filter13_f_331_22" x="612" y="0" width="17.8193" height="17.8193" filterUnits="userSpaceOnUse" color-interpolation-filters="sRGB">
<feFlood flood-opacity="0" result="BackgroundImageFix"/>
<feBlend mode="normal" in="SourceGraphic" in2="BackgroundImageFix" result="shape"/>
<feGaussianBlur stdDeviation="2" result="effect1_foregroundBlur_331_22"/>
</filter>
</defs>
</svg>
