<svg width="568" height="426" viewBox="0 0 568 426" fill="none" xmlns="http://www.w3.org/2000/svg">
<path d="M563.461 232.646L560.574 229.759L557.687 232.646L560.574 235.533L563.461 232.646ZM4.66732 232.646L7.55408 235.533L10.4408 232.646L7.55408 229.759L4.66732 232.646ZM560.574 232.646V232.146L7.55408 232.146V232.646V233.146L560.574 233.146V232.646Z" fill="white"/>
<path d="M560.574 232.646L7.55408 232.646" stroke="white"/>
<path d="M174.598 151.569L171.711 154.455L174.598 157.342L177.484 154.455L174.598 151.569ZM174.598 232.646L175.098 232.646L175.098 154.455L174.598 154.455L174.098 154.455L174.098 232.646L174.598 232.646Z" fill="white"/>
<g filter="url(#filter0_f_852_82)">
<path d="M174.598 232.646L174.598 154.455" stroke="#5E9ED5"/>
</g>
<path d="M101.383 299.507L104.27 296.62L101.383 293.733L98.4961 296.62L101.383 299.507ZM101.383 232.646H100.883L100.883 296.62H101.383H101.883L101.883 232.646H101.383Z" fill="white"/>
<g filter="url(#filter1_f_852_82)">
<path d="M101.383 232.646L101.383 296.62" stroke="#5E9ED5"/>
</g>
<path d="M369 420.887L371.887 418L369 415.113L366.113 418L369 420.887ZM369 233H368.5V418H369H369.5V233H369Z" fill="white"/>
<g filter="url(#filter2_f_852_82)">
<path d="M369 233V418" stroke="#5E9ED5"/>
</g>
<path d="M443 5.11325L440.113 8L443 10.8868L445.887 8L443 5.11325ZM443 233L443.5 233L443.5 8L443 8L442.5 8L442.5 233L443 233Z" fill="white"/>
<g filter="url(#filter3_f_852_82)">
<path d="M443 233L443 8" stroke="#5E9ED5"/>
</g>
<g filter="url(#filter4_f_852_82)">
<rect x="171.043" y="154.524" width="5.12297" height="4.74805" transform="rotate(-45 171.043 154.524)" fill="#5E9ED5"/>
</g>
<g filter="url(#filter5_f_852_82)">
<rect x="4" y="232.714" width="5.12297" height="4.74805" transform="rotate(-45 4 232.714)" fill="white"/>
</g>
<g filter="url(#filter6_f_852_82)">
<rect x="557.02" y="232.714" width="5.12297" height="4.74805" transform="rotate(-45 557.02 232.714)" fill="white"/>
</g>
<g filter="url(#filter7_f_852_82)">
<rect x="365" y="417.927" width="5.55293" height="5.19178" transform="rotate(-45 365 417.927)" fill="#5E9ED5"/>
</g>
<g filter="url(#filter8_f_852_82)">
<rect x="97.8286" y="296.688" width="5.12297" height="4.74805" transform="rotate(-45 97.8286 296.688)" fill="#5E9ED5"/>
</g>
<g filter="url(#filter9_d_852_82)">
<path d="M365.098 232.904L369.622 228.381L374.145 232.904L369.622 237.428L365.098 232.904Z" fill="#B69E5E"/>
</g>
<g filter="url(#filter10_d_852_82)">
<path d="M174.856 228.38L179.38 232.904L174.856 237.428L170.333 232.904L174.856 228.38Z" fill="#B69E5E"/>
</g>
<g filter="url(#filter11_d_852_82)">
<path d="M97.1177 232.904L101.641 228.381L106.165 232.904L101.641 237.428L97.1177 232.904Z" fill="#B69E5E"/>
</g>
<g filter="url(#filter12_d_852_82)">
<path d="M438.312 232.904L442.836 228.381L447.36 232.904L442.836 237.428L438.312 232.904Z" fill="#B69E5E"/>
</g>
<g filter="url(#filter13_f_852_82)">
<rect x="439" y="7.62256" width="5.12297" height="4.74805" transform="rotate(-45 439 7.62256)" fill="#5E9ED5"/>
</g>
<defs>
<filter id="filter0_f_852_82" x="170.098" y="150.456" width="9" height="86.1904" filterUnits="userSpaceOnUse" color-interpolation-filters="sRGB">
<feFlood flood-opacity="0" result="BackgroundImageFix"/>
<feBlend mode="normal" in="SourceGraphic" in2="BackgroundImageFix" result="shape"/>
<feGaussianBlur stdDeviation="2" result="effect1_foregroundBlur_852_82"/>
</filter>
<filter id="filter1_f_852_82" x="96.8828" y="228.646" width="9" height="71.9741" filterUnits="userSpaceOnUse" color-interpolation-filters="sRGB">
<feFlood flood-opacity="0" result="BackgroundImageFix"/>
<feBlend mode="normal" in="SourceGraphic" in2="BackgroundImageFix" result="shape"/>
<feGaussianBlur stdDeviation="2" result="effect1_foregroundBlur_852_82"/>
</filter>
<filter id="filter2_f_852_82" x="364.5" y="229" width="9" height="193" filterUnits="userSpaceOnUse" color-interpolation-filters="sRGB">
<feFlood flood-opacity="0" result="BackgroundImageFix"/>
<feBlend mode="normal" in="SourceGraphic" in2="BackgroundImageFix" result="shape"/>
<feGaussianBlur stdDeviation="2" result="effect1_foregroundBlur_852_82"/>
</filter>
<filter id="filter3_f_852_82" x="438.5" y="4" width="9" height="233" filterUnits="userSpaceOnUse" color-interpolation-filters="sRGB">
<feFlood flood-opacity="0" result="BackgroundImageFix"/>
<feBlend mode="normal" in="SourceGraphic" in2="BackgroundImageFix" result="shape"/>
<feGaussianBlur stdDeviation="2" result="effect1_foregroundBlur_852_82"/>
</filter>
<filter id="filter4_f_852_82" x="167.043" y="146.901" width="14.98" height="14.98" filterUnits="userSpaceOnUse" color-interpolation-filters="sRGB">
<feFlood flood-opacity="0" result="BackgroundImageFix"/>
<feBlend mode="normal" in="SourceGraphic" in2="BackgroundImageFix" result="shape"/>
<feGaussianBlur stdDeviation="2" result="effect1_foregroundBlur_852_82"/>
</filter>
<filter id="filter5_f_852_82" x="0" y="225.092" width="14.98" height="14.98" filterUnits="userSpaceOnUse" color-interpolation-filters="sRGB">
<feFlood flood-opacity="0" result="BackgroundImageFix"/>
<feBlend mode="normal" in="SourceGraphic" in2="BackgroundImageFix" result="shape"/>
<feGaussianBlur stdDeviation="2" result="effect1_foregroundBlur_852_82"/>
</filter>
<filter id="filter6_f_852_82" x="553.02" y="225.092" width="14.98" height="14.98" filterUnits="userSpaceOnUse" color-interpolation-filters="sRGB">
<feFlood flood-opacity="0" result="BackgroundImageFix"/>
<feBlend mode="normal" in="SourceGraphic" in2="BackgroundImageFix" result="shape"/>
<feGaussianBlur stdDeviation="2" result="effect1_foregroundBlur_852_82"/>
</filter>
<filter id="filter7_f_852_82" x="361" y="410" width="15.5977" height="15.5972" filterUnits="userSpaceOnUse" color-interpolation-filters="sRGB">
<feFlood flood-opacity="0" result="BackgroundImageFix"/>
<feBlend mode="normal" in="SourceGraphic" in2="BackgroundImageFix" result="shape"/>
<feGaussianBlur stdDeviation="2" result="effect1_foregroundBlur_852_82"/>
</filter>
<filter id="filter8_f_852_82" x="93.8286" y="289.066" width="14.98" height="14.98" filterUnits="userSpaceOnUse" color-interpolation-filters="sRGB">
<feFlood flood-opacity="0" result="BackgroundImageFix"/>
<feBlend mode="normal" in="SourceGraphic" in2="BackgroundImageFix" result="shape"/>
<feGaussianBlur stdDeviation="2" result="effect1_foregroundBlur_852_82"/>
</filter>
<filter id="filter9_d_852_82" x="364.098" y="228.381" width="10.0474" height="9.04688" filterUnits="userSpaceOnUse" color-interpolation-filters="sRGB">
<feFlood flood-opacity="0" result="BackgroundImageFix"/>
<feColorMatrix in="SourceAlpha" type="matrix" values="0 0 0 0 0 0 0 0 0 0 0 0 0 0 0 0 0 0 127 0" result="hardAlpha"/>
<feOffset dx="-1"/>
<feComposite in2="hardAlpha" operator="out"/>
<feColorMatrix type="matrix" values="0 0 0 0 0.376667 0 0 0 0 0.319396 0 0 0 0 0.166675 0 0 0 1 0"/>
<feBlend mode="normal" in2="BackgroundImageFix" result="effect1_dropShadow_852_82"/>
<feBlend mode="normal" in="SourceGraphic" in2="effect1_dropShadow_852_82" result="shape"/>
</filter>
<filter id="filter10_d_852_82" x="170.333" y="228.38" width="10.0469" height="9.04736" filterUnits="userSpaceOnUse" color-interpolation-filters="sRGB">
<feFlood flood-opacity="0" result="BackgroundImageFix"/>
<feColorMatrix in="SourceAlpha" type="matrix" values="0 0 0 0 0 0 0 0 0 0 0 0 0 0 0 0 0 0 127 0" result="hardAlpha"/>
<feOffset dx="1"/>
<feComposite in2="hardAlpha" operator="out"/>
<feColorMatrix type="matrix" values="0 0 0 0 0.376667 0 0 0 0 0.319396 0 0 0 0 0.166675 0 0 0 1 0"/>
<feBlend mode="normal" in2="BackgroundImageFix" result="effect1_dropShadow_852_82"/>
<feBlend mode="normal" in="SourceGraphic" in2="effect1_dropShadow_852_82" result="shape"/>
</filter>
<filter id="filter11_d_852_82" x="96.1177" y="228.381" width="10.0474" height="9.04688" filterUnits="userSpaceOnUse" color-interpolation-filters="sRGB">
<feFlood flood-opacity="0" result="BackgroundImageFix"/>
<feColorMatrix in="SourceAlpha" type="matrix" values="0 0 0 0 0 0 0 0 0 0 0 0 0 0 0 0 0 0 127 0" result="hardAlpha"/>
<feOffset dx="-1"/>
<feComposite in2="hardAlpha" operator="out"/>
<feColorMatrix type="matrix" values="0 0 0 0 0.376667 0 0 0 0 0.319396 0 0 0 0 0.166675 0 0 0 1 0"/>
<feBlend mode="normal" in2="BackgroundImageFix" result="effect1_dropShadow_852_82"/>
<feBlend mode="normal" in="SourceGraphic" in2="effect1_dropShadow_852_82" result="shape"/>
</filter>
<filter id="filter12_d_852_82" x="438.312" y="228.381" width="10.0474" height="9.04688" filterUnits="userSpaceOnUse" color-interpolation-filters="sRGB">
<feFlood flood-opacity="0" result="BackgroundImageFix"/>
<feColorMatrix in="SourceAlpha" type="matrix" values="0 0 0 0 0 0 0 0 0 0 0 0 0 0 0 0 0 0 127 0" result="hardAlpha"/>
<feOffset dx="1"/>
<feComposite in2="hardAlpha" operator="out"/>
<feColorMatrix type="matrix" values="0 0 0 0 0.376667 0 0 0 0 0.319396 0 0 0 0 0.166675 0 0 0 1 0"/>
<feBlend mode="normal" in2="BackgroundImageFix" result="effect1_dropShadow_852_82"/>
<feBlend mode="normal" in="SourceGraphic" in2="effect1_dropShadow_852_82" result="shape"/>
</filter>
<filter id="filter13_f_852_82" x="435" y="0" width="14.98" height="14.98" filterUnits="userSpaceOnUse" color-interpolation-filters="sRGB">
<feFlood flood-opacity="0" result="BackgroundImageFix"/>
<feBlend mode="normal" in="SourceGraphic" in2="BackgroundImageFix" result="shape"/>
<feGaussianBlur stdDeviation="2" result="effect1_foregroundBlur_852_82"/>
</filter>
</defs>
</svg>
