<svg width="235.000000" height="55.000000" viewBox="0 0 235 55" fill="none" xmlns="http://www.w3.org/2000/svg" xmlns:xlink="http://www.w3.org/1999/xlink">
	<desc>
			Created with Pixso.
	</desc>
	<defs/>
	<path id="БУВВ - 1  (BU-220-05A)" d="M56.51 -0.6L39.52 -0.6L39.52 19L49.85 19Q53.74 19 55.93 17.29Q56.81 16.6 57.33 15.7Q58.11 14.37 58.11 12.58Q58.11 10.54 57.15 9.18Q56.75 8.62 56.19 8.17Q54.28 6.65 50.69 6.65L46.01 6.65L46.01 4.38L56.51 4.38L56.51 -0.6ZM74.77 14.15L82.64 -0.6L76.25 -0.6L72.22 7.65L68.33 -0.6L61.36 -0.6L68.86 13.23Q68.39 13.81 67.87 14.07Q67.35 14.32 66.62 14.32Q65.84 14.32 64.6 13.98L63.07 18.74Q65 19.53 66.87 19.53Q68.04 19.53 69.11 19.21Q70.28 18.87 71.34 18.15Q73.37 16.78 74.77 14.15ZM105.09 10.47Q104.23 9.31 102.58 8.72Q103.66 8.11 104.29 7.2Q104.37 7.1 104.44 6.98Q104.53 6.84 104.6 6.69Q105.09 5.73 105.09 4.52Q105.09 3.27 104.57 2.31Q104.07 1.4 103.09 0.74Q101.09 -0.6 97.45 -0.6L87.51 -0.6L87.51 19L97.98 19Q101.79 19 103.88 17.47Q104.87 16.74 105.39 15.76Q105.96 14.69 105.96 13.31Q105.96 11.88 105.33 10.82Q105.22 10.64 105.09 10.47ZM129.4 10.47Q128.53 9.31 126.88 8.72Q127.96 8.11 128.6 7.2Q128.67 7.1 128.74 6.98Q128.83 6.84 128.91 6.69Q129.4 5.73 129.4 4.52Q129.4 3.27 128.87 2.31Q128.37 1.4 127.39 0.74Q125.4 -0.6 121.76 -0.6L111.82 -0.6L111.82 19L122.29 19Q126.1 19 128.18 17.47Q129.17 16.74 129.7 15.76Q130.27 14.69 130.27 13.31Q130.27 11.88 129.63 10.82Q129.53 10.64 129.4 10.47ZM182.71 19L182.71 -0.6L172.74 -0.6L172.74 4.38L176.1 4.38L176.1 19L182.71 19ZM96.81 6.93L94.01 6.93L94.01 4.02L96.81 4.02Q97.69 4.02 98.09 4.46Q98.43 4.82 98.43 5.5Q98.43 6.13 98.12 6.48Q97.72 6.93 96.81 6.93ZM121.11 6.93L118.31 6.93L118.31 4.02L121.11 4.02Q121.99 4.02 122.4 4.46Q122.73 4.82 122.73 5.5Q122.73 6.13 122.42 6.48Q122.02 6.93 121.11 6.93ZM155.94 8.52L147.54 8.52L147.54 13.28L155.94 13.28L155.94 8.52ZM50.93 13.96Q50.38 14.37 49.4 14.37L46.01 14.37L46.01 11.24L49.4 11.24Q50.75 11.24 51.22 11.88Q51.48 12.22 51.48 12.75Q51.48 13.26 51.24 13.62Q51.12 13.81 50.93 13.96ZM98.92 13.96Q98.51 14.37 97.68 14.37L94.01 14.37L94.01 11.3L97.68 11.3Q98.54 11.3 98.95 11.73Q99.3 12.11 99.3 12.81Q99.3 13.56 98.92 13.96ZM123.22 13.96Q122.82 14.37 121.98 14.37L118.31 14.37L118.31 11.3L121.98 11.3Q122.85 11.3 123.25 11.73Q123.6 12.11 123.6 12.81Q123.6 13.56 123.22 13.96ZM0.56 48.54Q1.51 51.91 3.33 54.43L9.38 54.43Q7.5 51.09 6.65 47.91Q5.79 44.74 5.79 41.33Q5.79 37.91 6.65 34.73Q7.5 31.55 9.38 28.22L3.33 28.22Q1.51 30.74 0.56 34.11Q-0.39 37.49 -0.39 41.33Q-0.39 45.16 0.56 48.54ZM227.34 47.91Q226.49 51.09 224.62 54.43L230.66 54.43Q232.48 51.91 233.43 48.54Q234.39 45.16 234.39 41.33Q234.39 37.49 233.43 34.11Q232.48 30.74 230.66 28.22L224.62 28.22Q226.49 31.55 227.34 34.73Q228.2 37.91 228.2 41.33Q228.2 44.74 227.34 47.91ZM93.41 49L93.41 43.87L86.8 43.87L89.59 41.33Q91.58 39.53 92.27 38.12Q92.5 37.64 92.66 37.14Q92.96 36.15 92.96 35.08Q92.96 33.93 92.55 32.94Q92.32 32.37 91.95 31.86Q91.83 31.7 91.7 31.54Q90.73 30.37 89.15 29.7Q87.36 28.95 85.03 28.95Q81.98 28.95 79.83 30.17Q78.48 30.93 77.54 32.03Q76.97 32.69 76.55 33.48L81.53 35.97Q81.8 35.41 82.23 35.01Q82.46 34.8 82.74 34.63Q83.2 34.35 83.71 34.23Q84.05 34.15 84.42 34.15Q85.34 34.15 85.83 34.56Q85.99 34.7 86.1 34.86Q86.32 35.2 86.32 35.69Q86.32 36.28 86.01 36.9Q85.7 37.52 84.78 38.39L77.7 44.93L77.7 49L93.41 49ZM113.93 49L113.93 43.87L107.32 43.87L110.12 41.33Q112.11 39.53 112.79 38.12Q113.03 37.64 113.18 37.14Q113.48 36.15 113.48 35.08Q113.48 33.93 113.08 32.94Q112.84 32.37 112.47 31.86Q112.35 31.7 112.23 31.54Q111.26 30.37 109.67 29.7Q107.88 28.95 105.56 28.95Q102.5 28.95 100.35 30.17Q99.01 30.93 98.06 32.03Q97.5 32.69 97.07 33.48L102.06 35.97Q102.33 35.41 102.75 35.01Q102.99 34.8 103.26 34.63Q103.73 34.35 104.23 34.23Q104.58 34.15 104.94 34.15Q105.87 34.15 106.35 34.56Q106.51 34.7 106.62 34.86Q106.84 35.2 106.84 35.69Q106.84 36.28 106.54 36.9Q106.23 37.52 105.31 38.39L98.22 44.93L98.22 49L113.93 49ZM123.65 48.57Q125.43 49.45 127.65 49.45Q129.86 49.45 131.64 48.57Q131.96 48.41 132.25 48.23Q132.68 47.97 133.06 47.66Q134.5 46.52 135.39 44.7Q136.53 42.38 136.53 39.19Q136.53 36 135.39 33.7Q134.5 31.87 133.06 30.73Q132.67 30.42 132.25 30.17Q131.94 29.98 131.61 29.81Q129.84 28.95 127.65 28.95Q125.45 28.95 123.69 29.81Q123.36 29.98 123.04 30.17Q122.64 30.41 122.28 30.7Q120.82 31.85 119.91 33.7Q118.77 36 118.77 39.19Q118.77 42.38 119.91 44.7Q120.81 46.54 122.27 47.69Q122.64 47.98 123.04 48.23Q123.34 48.41 123.65 48.57ZM160.95 48.57Q162.73 49.45 164.94 49.45Q167.16 49.45 168.94 48.57Q169.25 48.41 169.55 48.23Q169.97 47.97 170.36 47.66Q171.79 46.52 172.69 44.7Q173.82 42.38 173.82 39.19Q173.82 36 172.69 33.7Q171.79 31.87 170.35 30.73Q169.97 30.42 169.55 30.17Q169.24 29.98 168.91 29.81Q167.14 28.95 164.94 28.95Q162.75 28.95 160.98 29.81Q160.65 29.98 160.34 30.17Q159.94 30.41 159.57 30.7Q158.11 31.85 157.21 33.7Q156.07 36 156.07 39.19Q156.07 42.38 157.21 44.7Q158.11 46.54 159.56 47.69Q159.93 47.98 160.34 48.23Q160.64 48.41 160.95 48.57ZM32.42 40.63Q31.47 39.39 29.73 38.75Q31.06 38.09 31.74 37.02Q31.75 37 31.76 36.98Q31.97 36.65 32.12 36.29Q32.45 35.47 32.45 34.52Q32.45 33.49 32.06 32.64Q31.56 31.57 30.45 30.8Q28.45 29.4 24.52 29.4L14.05 29.4L14.05 49L25.08 49Q29.12 49 31.24 47.58Q32.29 46.88 32.83 45.9Q33.38 44.9 33.38 43.59Q33.38 42.31 32.85 41.3Q32.67 40.95 32.42 40.63ZM42.02 47.44Q44.48 49.45 48.58 49.45Q52.67 49.45 55.12 47.44Q55.37 47.24 55.6 47.01Q55.99 46.63 56.33 46.2Q58.12 43.89 58.12 40.18L58.12 29.4L51.63 29.4L51.63 39.98Q51.63 42.13 50.86 43.12Q50.63 43.41 50.34 43.61Q49.66 44.09 48.63 44.09Q47.62 44.09 46.93 43.62Q46.64 43.41 46.41 43.12Q45.64 42.13 45.64 39.98L45.64 29.4L39.03 29.4L39.03 40.18Q39.03 43.9 40.83 46.22Q41.16 46.64 41.55 47.01Q41.78 47.24 42.02 47.44ZM193.02 38.04Q191.07 36.31 186.95 36.31L185.95 36.31L186.08 34.38L193.67 34.38L193.67 29.4L180.66 29.4L179.67 41.3L185.36 41.3Q187.04 41.3 187.68 41.65Q188.03 41.84 188.19 42.13Q188.33 42.38 188.33 42.69Q188.33 42.97 188.22 43.2Q188.05 43.58 187.61 43.83Q186.9 44.24 185.75 44.24Q184.46 44.24 183.1 43.87Q182.5 43.71 181.92 43.48Q181.19 43.19 180.51 42.81L178.27 47.68Q179.82 48.54 181.87 49Q183.64 49.38 185.43 49.44Q185.71 49.45 186 49.45Q189 49.45 191.01 48.48Q193.03 47.51 193.99 45.96Q194.46 45.21 194.7 44.39Q194.96 43.51 194.96 42.56Q194.96 40.84 194.23 39.53Q193.77 38.7 193.02 38.04ZM206.47 45.58L213.92 45.58L215.24 49L222.06 49L213.5 29.4L207 29.4L198.43 49L205.15 49L206.47 45.58ZM20.55 36.93L20.55 34.02L23.63 34.02Q25.11 34.02 25.58 34.71Q25.79 35.02 25.79 35.47Q25.79 35.93 25.58 36.24Q25.11 36.93 23.63 36.93L20.55 36.93ZM128.35 44.01Q128.03 44.15 127.65 44.15Q127.27 44.15 126.96 44.01Q125.41 43.31 125.41 39.19Q125.41 35.07 126.96 34.38Q127.27 34.24 127.65 34.24Q128.03 34.24 128.35 34.38Q129.89 35.08 129.89 39.19Q129.89 43.31 128.35 44.01ZM165.64 44.01Q165.32 44.15 164.94 44.15Q164.57 44.15 164.25 44.01Q162.71 43.31 162.71 39.19Q162.71 35.07 164.25 34.38Q164.57 34.24 164.94 34.24Q165.32 34.24 165.64 34.38Q167.19 35.08 167.19 39.19Q167.19 43.31 165.64 44.01ZM210.19 35.89L212.1 40.82L208.29 40.82L210.19 35.89ZM72.71 38.52L64.31 38.52L64.31 43.28L72.71 43.28L72.71 38.52ZM150.5 38.52L142.1 38.52L142.1 43.28L150.5 43.28L150.5 38.52ZM26.47 43.69Q25.99 44.37 24.52 44.37L20.55 44.37L20.55 41.3L24.52 41.3Q25.99 41.3 26.47 41.99Q26.71 42.33 26.71 42.84Q26.71 43.34 26.47 43.69Z" fill="#007397" fill-opacity="1.000000" fill-rule="evenodd"/>
</svg>
