<svg width="97" height="97" viewBox="0 0 97 97" fill="none" xmlns="http://www.w3.org/2000/svg">
<g clip-path="url(#clip0_75_310)">
<path d="M10.2542 6.93244L8.82788 88.6479L90.5434 90.0743L91.9697 8.35879L10.2542 6.93244Z" fill="#434564"/>
<path d="M97 77.5824L18.1466 97L0 19.4274L78.8534 0L97 77.5824Z" fill="#B69E5E"/>
<path d="M75.6749 4.15285L4.15308 21.3237L21.324 92.8456L92.8458 75.6747L75.6749 4.15285Z" fill="#444762"/>
<path d="M19.6033 46.6568H26.0074V44.6232H25.5087V38.7568H21.0992C20.9428 38.9426 20.7863 39.1577 20.6299 39.4021C20.4734 39.6368 20.3463 39.8617 20.2388 40.0768C20.2388 41.5922 20.2388 43.1077 20.2388 44.6232H19.613V46.6568H19.6033Z" fill="#B89E63"/>
<path d="M26.5354 40.1061V45.5227C26.5843 45.6596 26.8776 46.5004 27.5718 46.6569C27.65 46.6764 27.7478 46.6862 27.8553 46.6764H31.1014C31.248 46.6177 32.0889 46.2364 32.1769 45.5325C32.1769 45.464 32.1867 45.3858 32.1769 45.2978V39.8617C32.1769 39.5292 31.8445 38.8937 31.2089 38.7471C31.1698 38.7471 31.1307 38.7471 31.0818 38.7471H27.65C27.1612 38.796 26.6136 39.2066 26.555 39.8226C26.555 39.8421 26.5256 40.0181 26.5256 40.0377V40.0963L26.5354 40.1061Z" fill="#B89E63"/>
<path d="M32.7048 46.6666V38.7568H34.8265V41.8856H36.6157V38.7568H38.6103V46.6666L36.6157 46.6764L36.6353 43.4401L34.8069 43.4304V46.6666H32.7048Z" fill="#B89E63"/>
<path d="M39.0991 46.5591V38.7568H44.8481V46.6764H42.9709V40.7709H41.0252L41.0155 46.6764L39.0991 46.5591Z" fill="#B89E63"/>
<path d="M45.5911 38.7764V46.6764H47.439V43.7139L50.4992 43.6846C50.597 43.6357 50.7437 43.5379 50.8806 43.3815C51.037 43.2055 51.1054 43.0295 51.1445 42.922V39.2946C51.125 39.1675 51.0761 39.1088 50.9685 38.9719C50.8023 38.7666 50.597 38.7471 50.4503 38.7471C48.8664 38.7471 47.1848 38.7666 45.6008 38.7666L45.5911 38.7764Z" fill="#B89E63"/>
<path d="M51.6921 39.9301V45.8258C51.6921 45.9236 51.7312 46.1093 51.8681 46.2951C52.0539 46.5591 52.2983 46.6471 52.3863 46.6764H56.5808C56.6688 46.6471 56.9132 46.5395 57.0892 46.2853C57.2065 46.1093 57.2358 45.9431 57.2456 45.8453V39.9301C57.2065 39.7834 57.1283 39.5488 56.9425 39.3141C56.7079 39.011 56.4243 38.8155 56.2777 38.7568C55.0751 38.7568 53.8822 38.7568 52.6796 38.7568C52.5232 38.8253 52.2299 39.0404 51.9952 39.3532C51.829 39.5781 51.741 39.7932 51.6921 39.9399V39.9301Z" fill="#B89E63"/>
<path d="M57.9985 46.6666L58.9469 38.7568H61.1273L61.8117 42.4331L62.4961 38.7568H64.7644L65.6248 46.6666H63.4836L63.0729 43.5477L62.6329 46.6666H60.8926L60.3255 43.5477L59.8562 46.6666H57.9985Z" fill="#B89E63"/>
<path d="M21.9596 40.4775H23.6413C23.7195 40.4775 23.7782 40.5362 23.7782 40.6144V44.1538C23.7782 44.2222 23.7195 44.2907 23.6413 44.2907H21.9499C21.8814 44.2907 21.8228 44.232 21.8228 44.1636V40.6144C21.8228 40.546 21.8814 40.4873 21.9499 40.4873L21.9596 40.4775Z" fill="#434662"/>
<path d="M28.5104 40.4775H30.1921C30.2703 40.4775 30.329 40.5362 30.329 40.6144V44.1538C30.329 44.2222 30.2703 44.2907 30.1921 44.2907H28.5006C28.4322 44.2907 28.3735 44.232 28.3735 44.1636V40.6144C28.3735 40.546 28.4322 40.4873 28.5006 40.4873L28.5104 40.4775Z" fill="#434662"/>
<path d="M53.6281 40.8003H55.3098C55.388 40.8003 55.4467 40.859 55.4467 40.9372V44.4765C55.4467 44.545 55.388 44.6134 55.3098 44.6134H53.6183C53.5499 44.6134 53.4912 44.5548 53.4912 44.4863V40.9372C53.4912 40.8687 53.5499 40.8101 53.6183 40.8101L53.6281 40.8003Z" fill="#434662"/>
<path d="M49.2282 40.0767H47.4976C47.3464 40.0767 47.2239 40.1992 47.2239 40.3504V42.1201C47.2239 42.2713 47.3464 42.3939 47.4976 42.3939H49.2282C49.3794 42.3939 49.502 42.2713 49.502 42.1201V40.3504C49.502 40.1992 49.3794 40.0767 49.2282 40.0767Z" fill="#434662"/>
<path d="M23.3481 47.3022H32.0597C32.3432 47.4587 32.6952 47.6738 33.0569 47.9964C33.36 48.2702 33.5947 48.544 33.7609 48.7786V56.5515C33.5556 56.8351 33.2818 57.1577 32.9396 57.4804C32.5387 57.8617 32.1379 58.1354 31.8055 58.3407C28.9994 58.3114 26.1933 58.2821 23.3873 58.243L23.3677 54.8014H30.2998V53.8334H24.9321L24.9223 51.7313H30.2998V50.7829L23.3579 50.7634V47.3022H23.3481Z" stroke="#B89C68" stroke-width="0.8" stroke-linecap="round" stroke-linejoin="round"/>
<path d="M34.2008 47.3022L34.103 58.2625H37.5739V53.8334H41.4555V58.2723H44.8287V47.3022H41.4555V51.7313H37.5739V47.3218L34.2008 47.3022Z" stroke="#B89C68" stroke-width="0.8" stroke-linecap="round" stroke-linejoin="round"/>
<path d="M45.2197 47.3218V58.2723H54.6645V54.8112H48.6906V53.8334H54.381V51.7313H48.6906V50.7927L54.6645 50.7536V47.3022L45.2197 47.3218Z" stroke="#B89C68" stroke-width="0.8" stroke-linecap="round" stroke-linejoin="round"/>
<path d="M55.134 47.312V58.2723L58.5952 58.2919V53.8334H63.7967C64.0411 53.7845 64.4029 53.6966 64.7842 53.4619C65.0873 53.2761 65.3121 53.0708 65.4588 52.9144V48.6808C65.3024 48.4462 65.0579 48.1431 64.6864 47.8498C64.354 47.576 64.0216 47.4098 63.7771 47.312H55.1243H55.134Z" stroke="#B89C68" stroke-width="0.8" stroke-linecap="round" stroke-linejoin="round"/>
<path d="M61.8119 50.04H58.5952V51.2426H61.8119V50.04Z" stroke="#B89C68" stroke-width="0.8" stroke-linecap="round" stroke-linejoin="round"/>
<path d="M65.8499 47.312V58.2919L69.311 58.3114V50.7927L74.8645 50.7536L74.884 47.3413L65.8499 47.312Z" stroke="#B89C68" stroke-width="0.8" stroke-linecap="round" stroke-linejoin="round"/>
<path d="M76.9861 47.3413H83.928C84.1724 47.4489 84.4853 47.6053 84.8079 47.8595C85.1697 48.143 85.4239 48.4364 85.5901 48.671V56.9719C85.4728 57.1772 85.2772 57.4608 84.9644 57.7345C84.5733 58.0767 84.1724 58.2429 83.928 58.3309C81.6108 58.3309 79.3033 58.3212 76.9861 58.3114C76.7221 58.1843 76.3897 57.9985 76.0377 57.7247C75.7151 57.4608 75.4707 57.1968 75.3044 56.9817V48.6906C75.4902 48.4559 75.764 48.1724 76.116 47.8986C76.4288 47.6542 76.7319 47.4782 76.9861 47.3609V47.3413Z" stroke="#B89C68" stroke-width="0.8" stroke-linecap="round" stroke-linejoin="round"/>
<path d="M82.2364 50.7925H78.7068V54.8109H82.2364V50.7925Z" stroke="#B89C68" stroke-width="0.8" stroke-linecap="round" stroke-linejoin="round"/>
<path d="M23.1135 52.787L8.08589 42.6774L21.8816 18.4591L42.1596 31.8637L42.5995 31.1989L21.7349 17.5107L6.98106 42.8338L19.9261 51.4769L17.6969 51.6724L4.81051 43.2836L18.7529 18.9578L20.1999 20.0137L20.415 19.6324L18.6062 18.3516L4.4292 43.3422L17.6089 52.3666L21.1483 51.8875L23.1233 53.1781L23.1135 52.787Z" fill="#BB9C67"/>
<path d="M19.9262 51.4771L17.6969 51.6727L4.81055 43.2838L18.7529 18.958L20.1999 20.0139L13.0723 32.3822L6.98109 42.834L19.9262 51.4771Z" fill="#444762"/>
<path d="M19.3689 21.9887L25.5286 20.3853" stroke="#BB9C67" stroke-width="0.5" stroke-miterlimit="10"/>
<path d="M18.5085 23.6217L26.9267 21.4707" stroke="#BB9C67" stroke-width="0.5" stroke-miterlimit="10"/>
<path d="M17.6382 25.3032L28.5496 22.4189" stroke="#BB9C67" stroke-width="0.5" stroke-miterlimit="10"/>
<path d="M16.4062 27.1509L30.153 23.4355" stroke="#BB9C67" stroke-width="0.5" stroke-miterlimit="10"/>
<path d="M21.3242 92.8445L25.02 91.9841L35.6577 73.3291H33.6924L21.3242 92.8445Z" fill="#B69E5E"/>
<path d="M54.469 36.4397L56.5124 36.5668L75.6758 4.15527L54.469 36.4397Z" fill="#B69E5E"/>
<path d="M34.2239 65.1211C34.2239 65.2155 34.2174 65.3473 34.2043 65.5166C34.1913 65.6859 34.1637 65.8779 34.1213 66.0928C34.0823 66.3044 34.0269 66.5306 33.9553 66.7715C33.887 67.0124 33.7926 67.2533 33.6721 67.4941C33.5549 67.7318 33.4117 67.9596 33.2424 68.1777C33.0732 68.3958 32.8697 68.5895 32.6321 68.7588C32.3977 68.9248 32.1259 69.0583 31.8167 69.1592C31.5107 69.2568 31.1624 69.3057 30.7717 69.3057C30.5764 69.3057 30.3941 69.2894 30.2249 69.2568C30.0556 69.2243 29.9026 69.1852 29.7659 69.1396C29.6292 69.0908 29.5103 69.0371 29.4094 68.9785C29.3118 68.9167 29.2418 68.8646 29.1995 68.8223C29.1571 68.7767 29.1295 68.7393 29.1165 68.71C29.1034 68.6774 29.0969 68.6335 29.0969 68.5781C29.0969 68.5684 29.0986 68.5472 29.1018 68.5146C29.1051 68.4788 29.1099 68.4398 29.1165 68.3975C29.123 68.3551 29.1311 68.3128 29.1409 68.2705C29.1539 68.2249 29.1669 68.1826 29.1799 68.1436C29.193 68.1045 29.2092 68.0736 29.2288 68.0508C29.2515 68.0247 29.276 68.0117 29.302 68.0117C29.3378 68.0117 29.3866 68.0426 29.4485 68.1045C29.5103 68.1631 29.5999 68.2282 29.717 68.2998C29.8342 68.3682 29.984 68.4333 30.1663 68.4951C30.3518 68.5537 30.5846 68.583 30.8645 68.583C31.1477 68.583 31.4114 68.5342 31.6555 68.4365C31.8997 68.3389 32.1194 68.194 32.3147 68.002C32.5133 67.8099 32.6842 67.5723 32.8274 67.2891C32.9739 67.0059 33.0878 66.6738 33.1692 66.293H30.1467C30.1044 66.293 30.0751 66.2783 30.0588 66.249C30.0426 66.2165 30.0344 66.1742 30.0344 66.1221C30.0344 66.1058 30.0361 66.0814 30.0393 66.0488C30.0426 66.0163 30.0474 65.9805 30.054 65.9414C30.0637 65.9023 30.0735 65.8633 30.0833 65.8242C30.0963 65.7819 30.1125 65.7445 30.1321 65.7119C30.1516 65.6761 30.1744 65.6484 30.2004 65.6289C30.2265 65.6061 30.2558 65.5947 30.2883 65.5947H33.2961C33.3092 65.5133 33.3189 65.4336 33.3254 65.3555C33.3319 65.2773 33.3352 65.2025 33.3352 65.1309C33.3352 64.8802 33.3043 64.6556 33.2424 64.457C33.1838 64.2585 33.0927 64.0924 32.969 63.959C32.8486 63.8223 32.6939 63.7181 32.5051 63.6465C32.3196 63.5716 32.1015 63.5342 31.8508 63.5342C31.6165 63.5342 31.4032 63.5618 31.2112 63.6172C31.0224 63.6725 30.858 63.7327 30.718 63.7979C30.578 63.863 30.4625 63.9232 30.3713 63.9785C30.2802 64.0306 30.2167 64.0566 30.1809 64.0566C30.1418 64.0566 30.1142 64.0436 30.0979 64.0176C30.0849 63.9915 30.0784 63.9476 30.0784 63.8857C30.0784 63.8662 30.08 63.8418 30.0833 63.8125C30.0865 63.7799 30.0914 63.7458 30.0979 63.71C30.1044 63.6742 30.1125 63.6383 30.1223 63.6025C30.1321 63.5635 30.1418 63.5277 30.1516 63.4951C30.1646 63.4593 30.1777 63.4268 30.1907 63.3975C30.2069 63.3682 30.2265 63.3421 30.2493 63.3193C30.2753 63.2965 30.3372 63.2559 30.4348 63.1973C30.5357 63.1387 30.6627 63.0817 30.8157 63.0264C30.9687 62.9678 31.1444 62.9173 31.343 62.875C31.5448 62.8327 31.7629 62.8115 31.9973 62.8115C32.287 62.8115 32.5426 62.8441 32.7639 62.9092C32.9885 62.971 33.1822 63.0589 33.345 63.1729C33.511 63.2835 33.6493 63.4137 33.76 63.5635C33.8739 63.71 33.9651 63.8695 34.0334 64.042C34.1018 64.2145 34.1506 64.3919 34.1799 64.5742C34.2092 64.7565 34.2239 64.9388 34.2239 65.1211ZM38.1594 69.0957C38.1562 69.1185 38.1448 69.1396 38.1252 69.1592C38.109 69.1787 38.0829 69.195 38.0471 69.208C38.0146 69.2178 37.9722 69.2259 37.9202 69.2324C37.8681 69.2422 37.803 69.2471 37.7249 69.2471C37.6467 69.2471 37.5816 69.2422 37.5295 69.2324C37.4807 69.2259 37.4417 69.2178 37.4124 69.208C37.3863 69.195 37.3684 69.1787 37.3586 69.1592C37.3489 69.1396 37.3472 69.1185 37.3538 69.0957L38.1155 65.2578H38.0032C37.6939 65.2578 37.4286 65.2969 37.2073 65.375C36.9859 65.4499 36.7955 65.5671 36.636 65.7266C36.4797 65.8861 36.3479 66.0911 36.2405 66.3418C36.1331 66.5924 36.0403 66.8887 35.9622 67.2305C35.8905 67.5462 35.8173 67.8164 35.7424 68.041C35.6708 68.2656 35.5943 68.4561 35.5129 68.6123C35.4348 68.7653 35.3486 68.889 35.2542 68.9834C35.1597 69.0745 35.054 69.1445 34.9368 69.1934C34.8228 69.2422 34.6943 69.2731 34.551 69.2861C34.4111 69.3024 34.2548 69.3105 34.0823 69.3105C34.0139 69.3105 33.9667 69.2975 33.9407 69.2715C33.9146 69.2454 33.9016 69.2031 33.9016 69.1445C33.9016 69.1283 33.9032 69.1038 33.9065 69.0713C33.9097 69.0355 33.9163 68.9964 33.926 68.9541C33.9325 68.9085 33.9423 68.863 33.9553 68.8174C33.9683 68.7686 33.9862 68.7246 34.009 68.6855C34.0286 68.6465 34.0514 68.6156 34.0774 68.5928C34.1034 68.57 34.136 68.5586 34.175 68.5586C34.3183 68.5586 34.4371 68.5439 34.5315 68.5146C34.6292 68.4854 34.7154 68.4202 34.7903 68.3193C34.8652 68.2152 34.9335 68.0638 34.9954 67.8652C35.0605 67.6667 35.1321 67.3981 35.2102 67.0596C35.2948 66.6852 35.4039 66.3451 35.5374 66.0391C35.6741 65.7331 35.8547 65.471 36.0793 65.2529C36.3072 65.0316 36.5904 64.8623 36.929 64.7451C37.2708 64.6247 37.6858 64.5645 38.1741 64.5645C38.275 64.5645 38.3824 64.5661 38.4963 64.5693C38.6103 64.5693 38.7177 64.5726 38.8186 64.5791C38.8967 64.5856 38.9521 64.6117 38.9846 64.6572C39.0204 64.6995 39.0286 64.7695 39.009 64.8672L38.1594 69.0957ZM43.8577 65.5996C43.8577 65.8242 43.8056 66.026 43.7014 66.2051C43.5972 66.3841 43.4345 66.5371 43.2131 66.6641C42.9918 66.791 42.7086 66.8887 42.3635 66.957C42.0185 67.0254 41.6051 67.0596 41.1233 67.0596H40.6057C40.5829 67.167 40.5667 67.2712 40.5569 67.3721C40.5504 67.473 40.5471 67.5674 40.5471 67.6553C40.5471 67.9808 40.6269 68.2298 40.7864 68.4023C40.9491 68.5749 41.2112 68.6611 41.5725 68.6611C41.7808 68.6611 41.968 68.6465 42.134 68.6172C42.3 68.5846 42.4433 68.5505 42.5637 68.5146C42.6874 68.4788 42.7883 68.4463 42.8665 68.417C42.9446 68.3844 42.9983 68.3682 43.0276 68.3682C43.0569 68.3682 43.078 68.3796 43.0911 68.4023C43.1073 68.4219 43.1155 68.4512 43.1155 68.4902C43.1155 68.5228 43.1122 68.5618 43.1057 68.6074C43.0992 68.653 43.0894 68.7002 43.0764 68.749C43.0634 68.7946 43.0455 68.8385 43.0227 68.8809C43.0032 68.9232 42.9804 68.959 42.9543 68.9883C42.9153 69.0273 42.8453 69.0664 42.7444 69.1055C42.6467 69.1413 42.5295 69.1755 42.3928 69.208C42.2561 69.2373 42.1064 69.2617 41.9436 69.2812C41.7808 69.3008 41.6181 69.3105 41.4553 69.3105C41.1656 69.3105 40.9117 69.278 40.6936 69.2129C40.4755 69.1478 40.2932 69.0485 40.1467 68.915C40.0035 68.7783 39.8961 68.609 39.8245 68.4072C39.7528 68.2054 39.717 67.9678 39.717 67.6943C39.717 67.4827 39.7366 67.2565 39.7756 67.0156C39.818 66.7715 39.8831 66.5306 39.9709 66.293C40.0588 66.0553 40.1728 65.8275 40.3127 65.6094C40.4527 65.3913 40.6187 65.1992 40.8108 65.0332C41.0061 64.8672 41.2307 64.7337 41.4846 64.6328C41.7385 64.5319 42.025 64.4814 42.344 64.4814C42.6174 64.4814 42.8486 64.5156 43.0374 64.584C43.2294 64.6523 43.3857 64.7402 43.5061 64.8477C43.6298 64.9551 43.7193 65.0755 43.7747 65.209C43.83 65.3392 43.8577 65.4694 43.8577 65.5996ZM43.0325 65.6729C43.0325 65.5068 42.9674 65.3734 42.8372 65.2725C42.7069 65.1683 42.5214 65.1162 42.2805 65.1162C42.0689 65.1162 41.8818 65.1536 41.719 65.2285C41.5562 65.3001 41.4114 65.3978 41.2844 65.5215C41.1607 65.6452 41.0533 65.79 40.9622 65.9561C40.8743 66.1188 40.8027 66.2913 40.7473 66.4736H41.2454C41.5872 66.4736 41.872 66.4525 42.0999 66.4102C42.331 66.3678 42.5149 66.3109 42.6516 66.2393C42.7916 66.1644 42.8892 66.0781 42.9446 65.9805C43.0032 65.8828 43.0325 65.7803 43.0325 65.6729ZM48.0081 69.0859C48.0081 69.112 48.0015 69.1348 47.9885 69.1543C47.9788 69.1738 47.9576 69.1917 47.925 69.208C47.8925 69.221 47.8486 69.2308 47.7932 69.2373C47.7411 69.2438 47.6728 69.2471 47.5881 69.2471C47.497 69.2471 47.4237 69.2438 47.3684 69.2373C47.3163 69.2308 47.2756 69.2227 47.2463 69.2129C47.217 69.1999 47.1959 69.1852 47.1829 69.1689C47.1698 69.1494 47.1617 69.1266 47.1584 69.1006L46.9143 67.9434C46.8818 67.7936 46.8411 67.6683 46.7922 67.5674C46.7434 67.4632 46.6816 67.3802 46.6067 67.3184C46.5318 67.2565 46.4407 67.2126 46.3333 67.1865C46.2291 67.1605 46.107 67.1475 45.967 67.1475H45.6252L45.2346 69.125C45.2281 69.1413 45.2151 69.1576 45.1956 69.1738C45.1793 69.1901 45.1532 69.2031 45.1174 69.2129C45.0816 69.2227 45.0377 69.2308 44.9856 69.2373C44.9335 69.2438 44.8733 69.2471 44.8049 69.2471C44.7333 69.2471 44.6731 69.2438 44.6243 69.2373C44.5754 69.2308 44.5347 69.2227 44.5022 69.2129C44.4729 69.2031 44.4517 69.1901 44.4387 69.1738C44.4257 69.1576 44.4208 69.1413 44.4241 69.125L45.3176 64.6621C45.3176 64.6458 45.3274 64.6312 45.3469 64.6182C45.3665 64.6019 45.3941 64.5889 45.4299 64.5791C45.4657 64.5693 45.5097 64.5628 45.5618 64.5596C45.6139 64.5531 45.6741 64.5498 45.7424 64.5498C45.8108 64.5498 45.8694 64.5531 45.9182 64.5596C45.9703 64.5628 46.011 64.5693 46.0403 64.5791C46.0696 64.5889 46.0907 64.6019 46.1038 64.6182C46.12 64.6312 46.1265 64.6458 46.1233 64.6621L45.7571 66.5029H46.0891C46.2063 66.5029 46.3186 66.4883 46.426 66.459C46.5334 66.4297 46.636 66.3825 46.7336 66.3174C46.8313 66.249 46.9257 66.1644 47.0168 66.0635C47.108 65.9593 47.1959 65.834 47.2805 65.6875L47.8665 64.7012C47.8827 64.6751 47.9023 64.6523 47.925 64.6328C47.9478 64.6133 47.9788 64.597 48.0178 64.584C48.0601 64.571 48.1106 64.5628 48.1692 64.5596C48.2278 64.5531 48.301 64.5498 48.3889 64.5498C48.467 64.5498 48.5289 64.5531 48.5745 64.5596C48.6233 64.5628 48.6607 64.5693 48.6868 64.5791C48.7128 64.5856 48.7291 64.5954 48.7356 64.6084C48.7454 64.6182 48.7502 64.6312 48.7502 64.6475C48.7502 64.6735 48.7421 64.7044 48.7258 64.7402C48.7128 64.7728 48.69 64.8151 48.6575 64.8672L48.0081 65.8926C47.9202 66.0326 47.829 66.1546 47.7346 66.2588C47.6402 66.363 47.5458 66.4525 47.4514 66.5273C47.3603 66.6022 47.2691 66.6624 47.178 66.708C47.0868 66.7536 47.0022 66.7894 46.9241 66.8154V66.8252C47.0185 66.8545 47.1047 66.8968 47.1829 66.9521C47.2642 67.0042 47.3375 67.071 47.4026 67.1523C47.4709 67.2305 47.5312 67.3232 47.5833 67.4307C47.6353 67.5348 47.6777 67.6569 47.7102 67.7969L47.9836 68.9346C47.9902 68.9671 47.995 68.9964 47.9983 69.0225C48.0048 69.0452 48.0081 69.0664 48.0081 69.0859ZM55.5081 69.0957C55.5048 69.1217 55.495 69.1445 55.4788 69.1641C55.4625 69.1803 55.4364 69.195 55.4006 69.208C55.3681 69.221 55.3241 69.2308 55.2688 69.2373C55.2167 69.2438 55.1516 69.2471 55.0735 69.2471C54.9954 69.2471 54.9303 69.2438 54.8782 69.2373C54.8293 69.2308 54.7903 69.221 54.761 69.208C54.7349 69.195 54.717 69.1803 54.7073 69.1641C54.6975 69.1445 54.6959 69.1217 54.7024 69.0957L55.2444 66.3809C55.2607 66.2865 55.2737 66.1969 55.2834 66.1123C55.2965 66.0277 55.303 65.943 55.303 65.8584C55.303 65.6501 55.2623 65.484 55.1809 65.3604C55.1028 65.2367 54.9644 65.1748 54.7659 65.1748C54.6031 65.1748 54.4338 65.2253 54.2581 65.3262C54.0855 65.4238 53.9211 65.5605 53.7649 65.7363C53.6086 65.9089 53.4703 66.1156 53.3499 66.3564C53.2294 66.5941 53.1415 66.8529 53.0862 67.1328L52.6956 69.0957C52.689 69.1217 52.6777 69.1445 52.6614 69.1641C52.6451 69.1803 52.6191 69.195 52.5833 69.208C52.5507 69.221 52.5068 69.2308 52.4514 69.2373C52.3993 69.2438 52.3342 69.2471 52.2561 69.2471C52.178 69.2471 52.1129 69.2438 52.0608 69.2373C52.012 69.2308 51.9745 69.221 51.9485 69.208C51.9224 69.195 51.9045 69.1803 51.8948 69.1641C51.885 69.1445 51.8818 69.1217 51.885 69.0957L52.427 66.3809C52.4498 66.2832 52.4644 66.1872 52.4709 66.0928C52.4807 65.9984 52.4856 65.9105 52.4856 65.8291C52.4856 65.6305 52.4449 65.4727 52.3635 65.3555C52.2821 65.235 52.1438 65.1748 51.9485 65.1748C51.7825 65.1748 51.6132 65.2253 51.4407 65.3262C51.2681 65.4238 51.1038 65.5605 50.9475 65.7363C50.7913 65.9089 50.6529 66.1156 50.5325 66.3564C50.412 66.5941 50.3241 66.8529 50.2688 67.1328L49.8782 69.0957C49.8717 69.1217 49.8603 69.1445 49.844 69.1641C49.8277 69.1803 49.8033 69.195 49.7708 69.208C49.7382 69.221 49.6943 69.2308 49.6389 69.2373C49.5868 69.2438 49.5217 69.2471 49.4436 69.2471C49.3622 69.2471 49.2955 69.2438 49.2434 69.2373C49.1946 69.2308 49.1555 69.221 49.1262 69.208C49.1002 69.195 49.0823 69.1803 49.0725 69.1641C49.066 69.1445 49.066 69.1217 49.0725 69.0957L49.9563 64.6963C49.9596 64.6735 49.9677 64.6523 49.9807 64.6328C49.997 64.6133 50.0198 64.597 50.0491 64.584C50.0816 64.571 50.1207 64.5628 50.1663 64.5596C50.2151 64.5531 50.2721 64.5498 50.3372 64.5498C50.4055 64.5498 50.4609 64.5531 50.5032 64.5596C50.5487 64.5628 50.5829 64.571 50.6057 64.584C50.6318 64.597 50.648 64.6133 50.6545 64.6328C50.6611 64.6523 50.6627 64.6735 50.6594 64.6963L50.4934 65.5361C50.5422 65.4255 50.622 65.3083 50.7327 65.1846C50.8466 65.0609 50.9784 64.9469 51.1282 64.8428C51.2779 64.7386 51.4407 64.6523 51.6165 64.584C51.7955 64.5156 51.9778 64.4814 52.1633 64.4814C52.3586 64.4814 52.5263 64.5091 52.6663 64.5645C52.8062 64.6165 52.9202 64.6898 53.0081 64.7842C53.0992 64.8753 53.1659 64.986 53.2083 65.1162C53.2506 65.2432 53.2766 65.3831 53.2864 65.5361C53.3515 65.4222 53.441 65.3034 53.5549 65.1797C53.6689 65.056 53.8007 64.9437 53.9504 64.8428C54.1002 64.7386 54.2629 64.6523 54.4387 64.584C54.6145 64.5156 54.7935 64.4814 54.9758 64.4814C55.1939 64.4814 55.3762 64.5124 55.5227 64.5742C55.6692 64.6361 55.788 64.7207 55.8792 64.8281C55.9703 64.9355 56.0354 65.0609 56.0745 65.2041C56.1135 65.3473 56.1331 65.5036 56.1331 65.6729C56.1331 65.7868 56.1265 65.8991 56.1135 66.0098C56.1005 66.1204 56.0826 66.2344 56.0598 66.3516L55.5081 69.0957ZM61.4309 66.0732C61.4309 66.262 61.413 66.4753 61.3772 66.7129C61.3414 66.9473 61.2844 67.1849 61.2063 67.4258C61.1282 67.6667 61.0273 67.901 60.9036 68.1289C60.7831 68.3535 60.6366 68.5537 60.4641 68.7295C60.2916 68.9053 60.0914 69.0469 59.8635 69.1543C59.6389 69.2585 59.3834 69.3105 59.0969 69.3105C58.9504 69.3105 58.817 69.2959 58.6965 69.2666C58.5761 69.2373 58.4654 69.1966 58.3645 69.1445C58.2636 69.0924 58.1708 69.0322 58.0862 68.9639C58.0015 68.8923 57.9234 68.8141 57.8518 68.7295L57.4368 70.8389C57.4303 70.8649 57.4189 70.8877 57.4026 70.9072C57.3896 70.9268 57.3668 70.943 57.3342 70.9561C57.3017 70.9691 57.2577 70.9788 57.2024 70.9854C57.1503 70.9919 57.0836 70.9951 57.0022 70.9951C56.9273 70.9951 56.8639 70.9919 56.8118 70.9854C56.7629 70.9788 56.7239 70.9691 56.6946 70.9561C56.6653 70.943 56.6474 70.9268 56.6409 70.9072C56.6311 70.8877 56.6278 70.8649 56.6311 70.8389L57.8665 64.6963C57.873 64.6442 57.9055 64.6068 57.9641 64.584C58.0227 64.5612 58.1204 64.5498 58.2571 64.5498C58.3254 64.5498 58.3808 64.5531 58.4231 64.5596C58.4654 64.5628 58.4996 64.571 58.5256 64.584C58.5517 64.5938 58.568 64.6084 58.5745 64.6279C58.581 64.6475 58.5826 64.6702 58.5793 64.6963L58.4133 65.5312C58.4589 65.4238 58.5354 65.3099 58.6428 65.1895C58.7535 65.0658 58.8837 64.9518 59.0334 64.8477C59.1864 64.7402 59.3557 64.6523 59.5413 64.584C59.7268 64.5156 59.9156 64.4814 60.1077 64.4814C60.3551 64.4814 60.5618 64.5238 60.7278 64.6084C60.8971 64.693 61.0338 64.807 61.1379 64.9502C61.2421 65.0902 61.317 65.2578 61.3625 65.4531C61.4081 65.6452 61.4309 65.8519 61.4309 66.0732ZM60.5862 66.127C60.5862 65.987 60.5732 65.8584 60.5471 65.7412C60.5243 65.624 60.4853 65.5231 60.4299 65.4385C60.3778 65.3538 60.3079 65.2887 60.22 65.2432C60.1353 65.1976 60.0295 65.1748 59.9026 65.1748C59.7268 65.1748 59.5478 65.2236 59.3655 65.3213C59.1832 65.4189 59.0139 65.5557 58.8577 65.7314C58.7014 65.9072 58.5614 66.1156 58.4377 66.3564C58.3173 66.5941 58.2294 66.8545 58.1741 67.1377L58.0129 67.9434C58.1659 68.1712 58.3303 68.3421 58.5061 68.4561C58.6819 68.5667 58.8805 68.6221 59.1018 68.6221C59.2743 68.6221 59.4306 68.5814 59.5706 68.5C59.7138 68.4186 59.8391 68.3096 59.9465 68.1729C60.0572 68.0361 60.1516 67.8815 60.2297 67.709C60.3111 67.5365 60.3778 67.3574 60.4299 67.1719C60.4853 66.9863 60.5243 66.8024 60.5471 66.6201C60.5732 66.4378 60.5862 66.2734 60.5862 66.127ZM66.5823 66.1562C66.5823 66.3971 66.5595 66.6429 66.5139 66.8936C66.4683 67.1442 66.3984 67.3867 66.304 67.6211C66.2128 67.8522 66.0956 68.0703 65.9524 68.2754C65.8092 68.4805 65.6399 68.6595 65.4446 68.8125C65.2525 68.9655 65.0328 69.0876 64.7854 69.1787C64.5413 69.2666 64.2678 69.3105 63.9651 69.3105C63.6526 69.3105 63.384 69.2731 63.1594 69.1982C62.9381 69.1234 62.7558 69.0143 62.6125 68.8711C62.4693 68.7279 62.3635 68.5521 62.2952 68.3438C62.2268 68.1354 62.1926 67.8994 62.1926 67.6357C62.1926 67.3949 62.2138 67.1491 62.2561 66.8984C62.3017 66.6478 62.3717 66.4069 62.4661 66.1758C62.5605 65.9447 62.6777 65.7266 62.8176 65.5215C62.9609 65.3132 63.1285 65.1325 63.3206 64.9795C63.5159 64.8265 63.7356 64.7061 63.9797 64.6182C64.2271 64.527 64.5022 64.4814 64.8049 64.4814C65.1174 64.4814 65.3844 64.5205 65.6057 64.5986C65.8303 64.6735 66.0142 64.7826 66.1575 64.9258C66.304 65.069 66.4114 65.2448 66.4797 65.4531C66.5481 65.6615 66.5823 65.8958 66.5823 66.1562ZM65.7327 66.2051C65.7327 66.0423 65.7148 65.8958 65.679 65.7656C65.6464 65.6354 65.5894 65.5264 65.5081 65.4385C65.4299 65.3473 65.3258 65.2773 65.1956 65.2285C65.0686 65.1797 64.914 65.1553 64.7317 65.1553C64.5364 65.1553 64.359 65.1911 64.1995 65.2627C64.04 65.3311 63.8967 65.4255 63.7698 65.5459C63.6461 65.6631 63.537 65.8014 63.4426 65.9609C63.3515 66.1204 63.275 66.2913 63.2131 66.4736C63.1545 66.6527 63.1106 66.8382 63.0813 67.0303C63.052 67.2191 63.0374 67.4046 63.0374 67.5869C63.0374 67.7497 63.0553 67.8962 63.0911 68.0264C63.1269 68.1566 63.1838 68.2673 63.262 68.3584C63.3433 68.4495 63.4475 68.5195 63.5745 68.5684C63.7014 68.6172 63.856 68.6416 64.0383 68.6416C64.2369 68.6416 64.4143 68.6074 64.5706 68.5391C64.7301 68.4674 64.8717 68.3714 64.9954 68.251C65.1223 68.1305 65.2314 67.9906 65.3225 67.8311C65.4169 67.6715 65.4934 67.5007 65.552 67.3184C65.6139 67.1361 65.6594 66.9505 65.6887 66.7617C65.718 66.5729 65.7327 66.3874 65.7327 66.2051ZM71.0452 69.0957C71.0387 69.1217 71.0273 69.1445 71.011 69.1641C70.9947 69.1803 70.9687 69.195 70.9329 69.208C70.9003 69.221 70.858 69.2308 70.8059 69.2373C70.7538 69.2438 70.6871 69.2471 70.6057 69.2471C70.5276 69.2471 70.4625 69.2438 70.4104 69.2373C70.3616 69.2308 70.3225 69.221 70.2932 69.208C70.2672 69.195 70.2493 69.1803 70.2395 69.1641C70.233 69.1445 70.233 69.1217 70.2395 69.0957L70.6204 67.167H68.4573L68.0715 69.0957C68.065 69.1217 68.0536 69.1445 68.0374 69.1641C68.0211 69.1803 67.9967 69.195 67.9641 69.208C67.9316 69.221 67.8876 69.2308 67.8323 69.2373C67.7802 69.2438 67.7151 69.2471 67.637 69.2471C67.5556 69.2471 67.4889 69.2438 67.4368 69.2373C67.3879 69.2308 67.3489 69.221 67.3196 69.208C67.2935 69.195 67.2756 69.1803 67.2659 69.1641C67.2594 69.1445 67.2594 69.1217 67.2659 69.0957L68.1399 64.7012C68.1431 64.6751 68.1529 64.654 68.1692 64.6377C68.1855 64.6182 68.2099 64.6019 68.2424 64.5889C68.2782 64.5726 68.3222 64.5628 68.3743 64.5596C68.4296 64.5531 68.4963 64.5498 68.5745 64.5498C68.6526 64.5498 68.7161 64.5531 68.7649 64.5596C68.817 64.5628 68.856 64.5726 68.8821 64.5889C68.9114 64.6019 68.9293 64.6182 68.9358 64.6377C68.9456 64.654 68.9488 64.6751 68.9456 64.7012L68.5891 66.4883H70.7571L71.1135 64.7012C71.1168 64.6751 71.1265 64.654 71.1428 64.6377C71.1591 64.6182 71.1835 64.6019 71.2161 64.5889C71.2519 64.5726 71.2958 64.5628 71.3479 64.5596C71.4032 64.5531 71.47 64.5498 71.5481 64.5498C71.6262 64.5498 71.6897 64.5531 71.7385 64.5596C71.7906 64.5628 71.8297 64.5726 71.8557 64.5889C71.885 64.6019 71.9029 64.6182 71.9094 64.6377C71.9192 64.654 71.9224 64.6751 71.9192 64.7012L71.0452 69.0957ZM76.1868 69.0957C76.1835 69.1217 76.1737 69.1445 76.1575 69.1641C76.1412 69.1836 76.1184 69.1999 76.0891 69.2129C76.0598 69.2227 76.0208 69.2308 75.9719 69.2373C75.9264 69.2438 75.8694 69.2471 75.801 69.2471C75.7359 69.2471 75.6806 69.2438 75.635 69.2373C75.5927 69.2308 75.5585 69.2227 75.5325 69.2129C75.5097 69.1999 75.4934 69.1836 75.4836 69.1641C75.4771 69.1445 75.4771 69.1217 75.4836 69.0957L75.6448 68.2705C75.5927 68.3812 75.5097 68.4984 75.3958 68.6221C75.2851 68.7425 75.1532 68.8548 75.0002 68.959C74.8505 69.0632 74.6845 69.1478 74.5022 69.2129C74.3232 69.278 74.1409 69.3105 73.9553 69.3105C73.734 69.3105 73.5468 69.2796 73.3938 69.2178C73.2441 69.1592 73.122 69.0778 73.0276 68.9736C72.9364 68.8662 72.8697 68.7409 72.8274 68.5977C72.7883 68.4512 72.7688 68.2917 72.7688 68.1191C72.7688 68.0117 72.7753 67.9027 72.7883 67.792C72.8046 67.6781 72.8241 67.5641 72.8469 67.4502L73.3889 64.6963C73.3954 64.6735 73.4068 64.6523 73.4231 64.6328C73.4394 64.6133 73.4638 64.597 73.4963 64.584C73.5321 64.571 73.5761 64.5628 73.6282 64.5596C73.6835 64.5531 73.7502 64.5498 73.8284 64.5498C73.9065 64.5498 73.97 64.5531 74.0188 64.5596C74.0709 64.5628 74.1099 64.571 74.136 64.584C74.1653 64.597 74.1832 64.6133 74.1897 64.6328C74.1995 64.6523 74.2027 64.6735 74.1995 64.6963L73.6624 67.4209C73.6428 67.5055 73.6282 67.5934 73.6184 67.6846C73.6086 67.7757 73.6038 67.8685 73.6038 67.9629C73.6038 68.0605 73.6119 68.1501 73.6282 68.2314C73.6477 68.3096 73.6786 68.3779 73.7209 68.4365C73.7665 68.4951 73.8235 68.5407 73.8918 68.5732C73.9635 68.6058 74.0497 68.6221 74.1506 68.6221C74.3232 68.6221 74.4989 68.5732 74.678 68.4756C74.8603 68.3747 75.0295 68.2363 75.1858 68.0605C75.342 67.8848 75.4804 67.6764 75.6008 67.4355C75.7245 67.1914 75.8157 66.9261 75.8743 66.6396L76.26 64.6963C76.2633 64.6735 76.273 64.6523 76.2893 64.6328C76.3088 64.6133 76.3349 64.597 76.3674 64.584C76.4032 64.571 76.4472 64.5628 76.4993 64.5596C76.5546 64.5531 76.6213 64.5498 76.6995 64.5498C76.7776 64.5498 76.8411 64.5531 76.8899 64.5596C76.942 64.5628 76.981 64.571 77.0071 64.584C77.0364 64.597 77.0543 64.6133 77.0608 64.6328C77.0706 64.6523 77.0738 64.6735 77.0706 64.6963L76.1868 69.0957ZM81.26 69.0859C81.26 69.112 81.2535 69.1348 81.2405 69.1543C81.2307 69.1738 81.2096 69.1917 81.177 69.208C81.1444 69.221 81.1005 69.2308 81.0452 69.2373C80.9931 69.2438 80.9247 69.2471 80.8401 69.2471C80.7489 69.2471 80.6757 69.2438 80.6204 69.2373C80.5683 69.2308 80.5276 69.2227 80.4983 69.2129C80.469 69.1999 80.4478 69.1852 80.4348 69.1689C80.4218 69.1494 80.4137 69.1266 80.4104 69.1006L80.1663 67.9434C80.1337 67.7936 80.093 67.6683 80.0442 67.5674C79.9954 67.4632 79.9335 67.3802 79.8586 67.3184C79.7838 67.2565 79.6926 67.2126 79.5852 67.1865C79.481 67.1605 79.359 67.1475 79.219 67.1475H78.8772L78.4866 69.125C78.4801 69.1413 78.467 69.1576 78.4475 69.1738C78.4312 69.1901 78.4052 69.2031 78.3694 69.2129C78.3336 69.2227 78.2896 69.2308 78.2375 69.2373C78.1855 69.2438 78.1252 69.2471 78.0569 69.2471C77.9853 69.2471 77.925 69.2438 77.8762 69.2373C77.8274 69.2308 77.7867 69.2227 77.7542 69.2129C77.7249 69.2031 77.7037 69.1901 77.6907 69.1738C77.6777 69.1576 77.6728 69.1413 77.676 69.125L78.5696 64.6621C78.5696 64.6458 78.5793 64.6312 78.5989 64.6182C78.6184 64.6019 78.6461 64.5889 78.6819 64.5791C78.7177 64.5693 78.7616 64.5628 78.8137 64.5596C78.8658 64.5531 78.926 64.5498 78.9944 64.5498C79.0627 64.5498 79.1213 64.5531 79.1702 64.5596C79.2222 64.5628 79.2629 64.5693 79.2922 64.5791C79.3215 64.5889 79.3427 64.6019 79.3557 64.6182C79.372 64.6312 79.3785 64.6458 79.3752 64.6621L79.009 66.5029H79.3411C79.4583 66.5029 79.5706 66.4883 79.678 66.459C79.7854 66.4297 79.8879 66.3825 79.9856 66.3174C80.0833 66.249 80.1777 66.1644 80.2688 66.0635C80.3599 65.9593 80.4478 65.834 80.5325 65.6875L81.1184 64.7012C81.1347 64.6751 81.1542 64.6523 81.177 64.6328C81.1998 64.6133 81.2307 64.597 81.2698 64.584C81.3121 64.571 81.3625 64.5628 81.4211 64.5596C81.4797 64.5531 81.553 64.5498 81.6409 64.5498C81.719 64.5498 81.7808 64.5531 81.8264 64.5596C81.8752 64.5628 81.9127 64.5693 81.9387 64.5791C81.9648 64.5856 81.981 64.5954 81.9875 64.6084C81.9973 64.6182 82.0022 64.6312 82.0022 64.6475C82.0022 64.6735 81.9941 64.7044 81.9778 64.7402C81.9648 64.7728 81.942 64.8151 81.9094 64.8672L81.26 65.8926C81.1721 66.0326 81.081 66.1546 80.9866 66.2588C80.8922 66.363 80.7978 66.4525 80.7034 66.5273C80.6122 66.6022 80.5211 66.6624 80.4299 66.708C80.3388 66.7536 80.2542 66.7894 80.176 66.8154V66.8252C80.2704 66.8545 80.3567 66.8968 80.4348 66.9521C80.5162 67.0042 80.5894 67.071 80.6545 67.1523C80.7229 67.2305 80.7831 67.3232 80.8352 67.4307C80.8873 67.5348 80.9296 67.6569 80.9622 67.7969L81.2356 68.9346C81.2421 68.9671 81.247 68.9964 81.2502 69.0225C81.2568 69.0452 81.26 69.0664 81.26 69.0859ZM85.8254 69.0957C85.8124 69.151 85.7766 69.1901 85.718 69.2129C85.6594 69.2357 85.5618 69.2471 85.425 69.2471C85.3599 69.2471 85.3062 69.2438 85.2639 69.2373C85.2216 69.2308 85.1874 69.2227 85.1614 69.2129C85.1353 69.1999 85.1174 69.1852 85.1077 69.1689C85.0979 69.1494 85.0979 69.125 85.1077 69.0957L85.2688 68.2656C85.2265 68.3698 85.15 68.4837 85.0393 68.6074C84.9286 68.7311 84.7968 68.8451 84.6438 68.9492C84.4941 69.0534 84.3264 69.1396 84.1409 69.208C83.9553 69.2764 83.7665 69.3105 83.5745 69.3105C83.314 69.3105 83.0976 69.265 82.925 69.1738C82.7558 69.0827 82.6207 68.9622 82.5198 68.8125C82.4189 68.6628 82.3489 68.4935 82.3098 68.3047C82.274 68.1159 82.2561 67.9222 82.2561 67.7236C82.2561 67.5413 82.2724 67.3346 82.3049 67.1035C82.3407 66.8724 82.3961 66.6364 82.4709 66.3955C82.5491 66.1546 82.6484 65.9202 82.7688 65.6924C82.8925 65.4645 83.0406 65.2611 83.2131 65.082C83.3857 64.8997 83.5859 64.7549 83.8137 64.6475C84.0416 64.5368 84.3004 64.4814 84.5901 64.4814C84.8798 64.4814 85.1272 64.54 85.3323 64.6572C85.5406 64.7744 85.7262 64.9355 85.8889 65.1406L85.9817 64.6963C85.9947 64.6442 86.0321 64.6068 86.094 64.584C86.1558 64.5612 86.2519 64.5498 86.3821 64.5498C86.4472 64.5498 86.5009 64.5531 86.5432 64.5596C86.5888 64.5628 86.6246 64.571 86.6506 64.584C86.6767 64.597 86.693 64.6133 86.6995 64.6328C86.706 64.6523 86.7076 64.6735 86.7043 64.6963L85.8254 69.0957ZM85.6741 65.8486C85.5211 65.624 85.3551 65.4564 85.176 65.3457C85.0002 65.2318 84.8017 65.1748 84.5803 65.1748C84.4045 65.1748 84.245 65.2171 84.1018 65.3018C83.9618 65.3831 83.8365 65.4922 83.7258 65.6289C83.6184 65.7656 83.524 65.9219 83.4426 66.0977C83.3645 66.2702 83.2994 66.4492 83.2473 66.6348C83.1985 66.8203 83.1611 67.0026 83.135 67.1816C83.1122 67.3607 83.1008 67.5218 83.1008 67.665C83.1008 67.779 83.109 67.8929 83.1252 68.0068C83.1448 68.1175 83.179 68.2201 83.2278 68.3145C83.2799 68.4056 83.3499 68.4805 83.4377 68.5391C83.5256 68.5944 83.6396 68.6221 83.7795 68.6221C83.9586 68.6221 84.1376 68.5732 84.3167 68.4756C84.4989 68.3747 84.6682 68.2363 84.8245 68.0605C84.9807 67.8848 85.1191 67.6781 85.2395 67.4404C85.3599 67.2028 85.4495 66.9408 85.5081 66.6543L85.6741 65.8486Z" fill="#B89E63"/>
</g>
<defs>
<clipPath id="clip0_75_310">
<rect width="97" height="97" fill="white"/>
</clipPath>
</defs>
</svg>
